<?xml version="1.0" encoding="utf-8"?>
<!-- Generator: Adobe Illustrator 22.1.0, SVG Export Plug-In . SVG Version: 6.00 Build 0)  -->
<svg version="1.1" id="Layer_1" xmlns="http://www.w3.org/2000/svg" xmlns:xlink="http://www.w3.org/1999/xlink" x="0px" y="0px"
	 viewBox="0 0 57 57" style="enable-background:new 0 0 57 57;" xml:space="preserve">
<style type="text/css">
	.st0{fill:#293880;}
	.st1{fill:#FFFFFF;}
</style>
<g>
	<g>
		<rect x="3.8" y="0.5" class="st0" width="49.4" height="46.7"/>
		<g>
			<path class="st1" d="M19.7,32.3c0.6-0.5,1.4-0.8,2.2-0.8h17.3V9.8H22.7c-1.6,0-3,1.3-3,3L19.7,32.3L19.7,32.3z M23.8,13.2h11.3
				v1.3H23.8V13.2z M23.8,18.6h11.3v1.3H23.8V18.6z"/>
			<path class="st1" d="M39.2,35.6H22.9v-1.3h16.3v-1.6H21.9c-1.2,0-2.2,1-2.2,2.2c0,1.2,1,2.2,2.2,2.2h17.3L39.2,35.6L39.2,35.6
				L39.2,35.6z"/>
		</g>
	</g>
	<polygon class="st0" points="22.4,47.2 13.1,56.5 3.8,47.2 	"/>
</g>
</svg>
