<?xml version="1.0" encoding="utf-8"?>
<!-- Generator: Adobe Illustrator 22.1.0, SVG Export Plug-In . SVG Version: 6.00 Build 0)  -->
<svg version="1.1" id="Layer_1" xmlns="http://www.w3.org/2000/svg" xmlns:xlink="http://www.w3.org/1999/xlink" x="0px" y="0px"
	 viewBox="0 0 977 368" style="enable-background:new 0 0 977 368;" xml:space="preserve">
<style type="text/css">
	.st0{fill:#6D6D6D;}
	.st1{fill:#008AD7;}
	.st2{fill:#83C139;}
	.st3{fill-rule:evenodd;clip-rule:evenodd;fill:#008AD7;}
	.st4{fill-rule:evenodd;clip-rule:evenodd;fill:#83C139;}
</style>
<g>
	<g>
		<path class="st0" d="M46.7,364.4H53l14.1-38.9h-6.3l0.3-0.8h12.8l-0.6,30.6h0.1L95,324.7h12.6l-0.3,0.8H101l-14.1,38.9h6.3
			l-0.3,0.8H74.5l0.3-0.8h6.3l14-38.5H95l-27.9,39.4l0.7-39h-0.1l-13.9,38.1h6.3l-0.3,0.8H46.4L46.7,364.4z"/>
		<path class="st0" d="M96.2,364.4h4.4l8.3-22.8h-4.4l0.3-0.8h9.3l-8.6,23.6h4.4l-0.3,0.8H95.9L96.2,364.4z M113.3,327.6
			c0.3-0.8,0.9-1.5,1.7-2.1c0.8-0.6,1.6-0.9,2.5-0.9s1.4,0.3,1.8,0.9c0.4,0.6,0.4,1.3,0.1,2.1c-0.3,0.8-0.9,1.5-1.7,2.1
			c-0.8,0.6-1.6,0.9-2.5,0.9s-1.4-0.3-1.8-0.9C113,329.1,113,328.4,113.3,327.6z"/>
		<path class="st0" d="M112.8,364.4h4.4l8.3-22.8h-4.4l0.3-0.8h9.1l-2.2,6.1h0.1c0.4-0.5,1-1.1,1.7-1.9c0.7-0.8,1.6-1.5,2.6-2.2
			c1-0.7,2.2-1.3,3.5-1.8c1.3-0.5,2.8-0.8,4.4-0.8c2.5,0,4.3,0.6,5.4,1.8c1.1,1.2,1.2,3.1,0.2,5.8l-6,16.6h4.4l-0.3,0.8h-13.6
			l0.3-0.8h4.4l6.7-18.3c0.5-1.5,0.6-2.7,0.3-3.6c-0.4-0.9-1.3-1.4-2.8-1.4c-1.2,0-2.5,0.3-3.8,0.8c-1.3,0.5-2.5,1.3-3.7,2.2
			c-1.2,0.9-2.2,2.1-3.2,3.4c-0.9,1.3-1.7,2.7-2.2,4.2l-4.7,12.8h4.4l-0.3,0.8h-13.6L112.8,364.4z"/>
		<path class="st0" d="M159.3,351.1c-0.1,0.4-0.3,0.8-0.5,1.2c-0.2,0.4-0.4,0.9-0.6,1.5c-0.5,1.2-0.9,2.6-1.2,3.9
			c-0.3,1.4-0.5,2.6-0.4,3.7c0.1,1.1,0.5,2,1.3,2.7c0.7,0.7,1.9,1.1,3.6,1.1c1.7,0,3.1-0.2,4.4-0.7c1.3-0.5,2.3-1.1,3.2-1.8
			c0.9-0.7,1.6-1.4,2.2-2.1c0.6-0.7,1-1.3,1.3-1.8l0.8,0.2c-0.3,0.4-0.7,1-1.3,1.8c-0.6,0.8-1.4,1.6-2.4,2.3c-1,0.8-2.2,1.5-3.6,2
			c-1.4,0.6-3.1,0.9-5,0.9c-1.9,0-3.5-0.3-4.9-0.9c-1.4-0.6-2.5-1.5-3.2-2.6c-0.8-1.1-1.2-2.5-1.2-4.1c-0.1-1.6,0.2-3.3,0.9-5.3
			c0.6-1.7,1.5-3.3,2.8-4.9c1.2-1.6,2.7-3,4.2-4.2c1.6-1.2,3.3-2.2,5.1-2.9c1.8-0.7,3.6-1.1,5.4-1.1c1.1,0,2.1,0.2,3.2,0.6
			c1.1,0.4,2,1,2.7,1.8c0.7,0.9,1.2,2,1.4,3.4c0.2,1.4-0.1,3.1-0.9,5.2H159.3z M171.2,350.3c0.3-0.5,0.5-1,0.7-1.5
			c0.2-0.5,0.3-0.9,0.5-1.4c0.5-1.3,0.7-2.3,0.8-3.2c0.1-0.8,0-1.5-0.3-2c-0.3-0.5-0.7-0.8-1.2-1.1c-0.5-0.2-1.2-0.3-1.9-0.3
			c-1.3,0-2.4,0.3-3.5,0.8c-1,0.5-1.9,1.2-2.7,2.1c-0.8,0.9-1.5,1.9-2.2,3c-0.7,1.1-1.3,2.3-1.8,3.6H171.2z"/>
		<path class="st0" d="M176.1,364.4h4.4l8.3-22.8h-4.4l0.3-0.8h9.1l-2.1,5.7h0.1c0.4-0.6,0.8-1.2,1.4-1.9c0.6-0.7,1.3-1.4,2.2-2.1
			c0.8-0.7,1.8-1.2,2.8-1.7c1-0.5,2.1-0.7,3.3-0.7c0.9,0,1.6,0.1,2.1,0.4c0.5,0.3,0.9,0.6,1.2,1.1c0.3,0.4,0.4,0.9,0.4,1.5
			c0,0.6-0.1,1.1-0.3,1.7c-0.5,1.2-1,2.1-1.8,2.5c-0.7,0.4-1.5,0.6-2.2,0.6c-1.7,0-2.3-0.5-1.9-1.6c0.1-0.3,0.3-0.6,0.4-0.8
			c0.2-0.2,0.3-0.4,0.5-0.6c0.2-0.2,0.3-0.4,0.5-0.7c0.2-0.3,0.3-0.6,0.5-1.1c0.4-1.2,0-1.8-1.3-1.8c-0.6,0-1.3,0.2-2.2,0.7
			c-0.8,0.5-1.7,1.1-2.6,2c-0.9,0.9-1.8,1.9-2.6,3.2c-0.8,1.2-1.6,2.6-2.1,4.2l-4.7,13h4.9l-0.3,0.8h-14.2L176.1,364.4z"/>
		<path class="st0" d="M224.7,364.5c-0.6,0.4-1.3,0.7-2.1,1c-0.8,0.3-1.7,0.4-2.7,0.4c-1.8,0-3-0.4-3.5-1.2
			c-0.5-0.8-0.7-1.9-0.5-3.3h-0.1c-0.3,0.3-0.6,0.8-1.1,1.3c-0.5,0.5-1,1-1.8,1.5c-0.7,0.5-1.6,0.9-2.6,1.2c-1,0.3-2.2,0.5-3.6,0.5
			c-1.6,0-2.8-0.2-3.6-0.5c-0.8-0.4-1.4-0.8-1.7-1.3c-0.3-0.5-0.5-1.1-0.4-1.8c0.1-0.7,0.2-1.3,0.4-1.8c0.5-1.3,1.1-2.4,2-3.2
			c0.8-0.8,1.7-1.4,2.8-1.9c1-0.5,2.1-0.9,3.3-1.2c1.2-0.3,2.3-0.6,3.5-1c1.4-0.4,2.6-0.8,3.5-1.1c0.9-0.3,1.7-0.7,2.3-1.1
			c0.6-0.4,1.1-1,1.5-1.6c0.4-0.7,0.8-1.6,1.2-2.7c0.3-0.9,0.6-1.7,0.7-2.4c0.1-0.7,0.2-1.3,0-1.8c-0.1-0.5-0.4-0.9-0.9-1.2
			c-0.5-0.3-1.2-0.4-2.1-0.4c-1.2,0-2.4,0.2-3.3,0.7c-1,0.4-1.6,1.1-2,2.1c-0.2,0.6-0.4,1.3-0.5,1.9c-0.1,0.6-0.2,1.1-0.3,1.4
			c-0.2,0.5-0.5,1-1.1,1.3c-0.5,0.4-1.1,0.5-1.8,0.5c-1.2,0-1.9-0.2-2.1-0.7c-0.1-0.5-0.1-1,0.2-1.8c0.3-0.8,0.8-1.6,1.4-2.4
			c0.7-0.8,1.5-1.4,2.4-2c1-0.6,2-1.1,3.3-1.4c1.2-0.3,2.6-0.5,4-0.5c1.7,0,3.1,0.2,4.1,0.7c1,0.4,1.7,1,2.2,1.8
			c0.4,0.7,0.7,1.6,0.6,2.5c0,0.9-0.2,1.9-0.6,2.9l-5.1,14.1c-0.4,1.1-0.5,1.8-0.3,2.2c0.2,0.4,0.6,0.6,1.3,0.6
			c0.4,0,0.9-0.1,1.4-0.2c0.5-0.2,1-0.4,1.6-0.7L224.7,364.5z M219.6,351.2h-0.1c-0.3,0.5-1.1,1-2.4,1.5l-4.9,1.7
			c-1.4,0.5-2.6,1.2-3.5,2.1c-1,0.9-1.7,2-2.2,3.3c-0.2,0.6-0.4,1.2-0.5,1.8c-0.1,0.6-0.1,1.1,0,1.6c0.1,0.5,0.4,0.9,0.9,1.2
			c0.4,0.3,1.1,0.5,2,0.5c1.2,0,2.4-0.3,3.3-0.8c1-0.5,1.8-1.2,2.5-2c0.7-0.8,1.3-1.7,1.7-2.6c0.5-0.9,0.8-1.8,1.1-2.5L219.6,351.2z
			"/>
		<path class="st0" d="M226.6,364.4h4.4l14.3-39.4h-4.4l0.3-0.8h9.3l-14.6,40.2h4.4l-0.3,0.8h-13.6L226.6,364.4z"/>
		<path class="st0" d="M266,353h0.6c-0.3,2-0.4,3.8-0.3,5.2c0.2,1.4,0.5,2.6,0.9,3.5c0.5,0.9,1,1.6,1.7,2.1c0.7,0.5,1.4,0.9,2.2,1.1
			c0.8,0.2,1.6,0.4,2.4,0.4c0.8,0,1.6,0.1,2.3,0.1c2,0,3.8-0.3,5.3-0.9c1.5-0.6,2.8-1.4,3.9-2.3c1.1-0.9,2-1.9,2.7-3
			c0.7-1.1,1.2-2.1,1.5-3c0.5-1.3,0.6-2.5,0.5-3.4c-0.1-0.9-0.5-1.8-1-2.4c-0.5-0.7-1.1-1.2-1.9-1.6c-0.7-0.4-1.5-0.7-2.2-1l-5.8-2
			c-2.7-0.9-4.6-2.2-5.6-3.7c-1-1.6-1-3.6-0.1-6.2c0.6-1.7,1.5-3.3,2.6-4.7c1.1-1.5,2.4-2.7,3.9-3.8c1.5-1.1,3.1-1.9,4.9-2.5
			c1.8-0.6,3.5-0.9,5.4-0.9c1.3,0,2.4,0.1,3.2,0.3c0.8,0.2,1.5,0.5,2,0.8c0.5,0.3,1,0.5,1.5,0.8c0.4,0.2,0.9,0.3,1.4,0.3
			c0.5,0,0.8-0.1,1.1-0.2c0.2-0.1,0.6-0.5,1.1-1h0.8l-3.7,10.3h-0.7c0.3-1.4,0.4-2.7,0.3-3.9c-0.1-1.3-0.4-2.4-0.9-3.4
			c-0.5-1-1.3-1.7-2.3-2.3c-1-0.6-2.3-0.9-4-0.9c-0.9,0-2,0.1-3.1,0.4c-1.2,0.2-2.4,0.7-3.5,1.3c-1.2,0.6-2.2,1.4-3.2,2.4
			c-1,1-1.8,2.2-2.3,3.8c-0.4,1.2-0.6,2.2-0.4,3.1c0.2,0.9,0.6,1.6,1.1,2.2c0.6,0.6,1.3,1.1,2.1,1.5c0.8,0.4,1.7,0.7,2.5,1.1
			l6.1,2.2c0.6,0.2,1.4,0.5,2.4,0.9c1,0.4,1.8,0.9,2.6,1.7c0.8,0.8,1.3,1.8,1.6,3c0.3,1.2,0.1,2.8-0.6,4.8c-0.6,1.8-1.6,3.5-2.8,5.1
			c-1.2,1.6-2.7,3-4.4,4.3c-1.7,1.2-3.6,2.2-5.6,3c-2,0.7-4.2,1.1-6.4,1.1c-0.8,0-1.5,0-2.1,0c-0.6,0-1.2-0.1-1.7-0.1
			c-0.5-0.1-1-0.2-1.5-0.3c-0.5-0.1-1-0.2-1.6-0.4c-0.7-0.2-1.4-0.5-2.2-0.8c-0.8-0.3-1.5-0.5-2.1-0.5c-0.6,0-1,0.1-1.3,0.3
			c-0.3,0.2-0.6,0.5-0.9,0.9h-0.9L266,353z"/>
		<path class="st0" d="M308.6,351.1c-0.1,0.4-0.3,0.8-0.5,1.2c-0.2,0.4-0.4,0.9-0.6,1.5c-0.5,1.2-0.9,2.6-1.2,3.9
			c-0.3,1.4-0.5,2.6-0.4,3.7c0.1,1.1,0.5,2,1.3,2.7c0.7,0.7,1.9,1.1,3.6,1.1c1.7,0,3.1-0.2,4.4-0.7c1.3-0.5,2.3-1.1,3.2-1.8
			c0.9-0.7,1.6-1.4,2.2-2.1c0.6-0.7,1-1.3,1.3-1.8l0.8,0.2c-0.3,0.4-0.7,1-1.3,1.8c-0.6,0.8-1.4,1.6-2.4,2.3c-1,0.8-2.2,1.5-3.6,2
			c-1.4,0.6-3.1,0.9-5,0.9c-1.9,0-3.5-0.3-4.9-0.9c-1.4-0.6-2.5-1.5-3.2-2.6c-0.8-1.1-1.2-2.5-1.2-4.1c-0.1-1.6,0.2-3.3,0.9-5.3
			c0.6-1.7,1.5-3.3,2.8-4.9c1.2-1.6,2.7-3,4.2-4.2c1.6-1.2,3.3-2.2,5.1-2.9c1.8-0.7,3.6-1.1,5.4-1.1c1.1,0,2.1,0.2,3.2,0.6
			c1.1,0.4,2,1,2.7,1.8c0.7,0.9,1.2,2,1.4,3.4c0.2,1.4-0.1,3.1-0.9,5.2H308.6z M320.6,350.3c0.3-0.5,0.5-1,0.7-1.5
			c0.2-0.5,0.3-0.9,0.5-1.4c0.5-1.3,0.7-2.3,0.8-3.2c0.1-0.8,0-1.5-0.3-2c-0.3-0.5-0.7-0.8-1.2-1.1c-0.5-0.2-1.2-0.3-1.9-0.3
			c-1.3,0-2.4,0.3-3.5,0.8c-1,0.5-1.9,1.2-2.7,2.1c-0.8,0.9-1.5,1.9-2.2,3c-0.7,1.1-1.3,2.3-1.8,3.6H320.6z"/>
		<path class="st0" d="M325.4,364.4h4.4l8.3-22.8h-4.4l0.3-0.8h9.1l-2.1,5.7h0.1c0.4-0.6,0.8-1.2,1.4-1.9c0.6-0.7,1.3-1.4,2.2-2.1
			c0.8-0.7,1.8-1.2,2.8-1.7c1-0.5,2.1-0.7,3.3-0.7c0.9,0,1.6,0.1,2.1,0.4c0.5,0.3,0.9,0.6,1.2,1.1c0.3,0.4,0.4,0.9,0.4,1.5
			c0,0.6-0.1,1.1-0.3,1.7c-0.5,1.2-1,2.1-1.8,2.5c-0.7,0.4-1.5,0.6-2.2,0.6c-1.7,0-2.3-0.5-1.9-1.6c0.1-0.3,0.3-0.6,0.4-0.8
			c0.2-0.2,0.3-0.4,0.5-0.6c0.2-0.2,0.3-0.4,0.5-0.7c0.2-0.3,0.3-0.6,0.5-1.1c0.4-1.2,0-1.8-1.3-1.8c-0.6,0-1.3,0.2-2.2,0.7
			c-0.8,0.5-1.7,1.1-2.6,2c-0.9,0.9-1.8,1.9-2.6,3.2c-0.8,1.2-1.6,2.6-2.1,4.2l-4.7,13h4.9l-0.3,0.8h-14.2L325.4,364.4z"/>
		<path class="st0" d="M354.5,340.8h13.7l-0.3,0.8h-4.7l0.8,17.8l14.1-17.8h-4.7l0.3-0.8h8.6l-0.3,0.8h-3.1l-20,25.4l-1.1-25.4h-3.9
			L354.5,340.8z"/>
		<path class="st0" d="M375.9,364.4h4.4l8.3-22.8h-4.4l0.3-0.8h9.3l-8.6,23.6h4.4l-0.3,0.8h-13.6L375.9,364.4z M393,327.6
			c0.3-0.8,0.9-1.5,1.7-2.1c0.8-0.6,1.6-0.9,2.5-0.9c0.8,0,1.4,0.3,1.8,0.9c0.4,0.6,0.4,1.3,0.1,2.1c-0.3,0.8-0.9,1.5-1.7,2.1
			c-0.8,0.6-1.6,0.9-2.5,0.9s-1.4-0.3-1.8-0.9C392.7,329.1,392.7,328.4,393,327.6z"/>
		<path class="st0" d="M418.4,358.9c-0.3,0.4-0.7,1-1.3,1.8c-0.6,0.8-1.4,1.6-2.4,2.3c-1,0.8-2.2,1.5-3.6,2c-1.4,0.6-3.1,0.9-5,0.9
			c-1.4,0-2.9-0.2-4.2-0.7c-1.4-0.5-2.5-1.2-3.5-2.2c-0.9-1-1.5-2.3-1.7-3.9c-0.2-1.6,0.1-3.6,1-6c0.7-1.9,1.7-3.6,2.9-5.2
			c1.3-1.6,2.7-3,4.3-4.1c1.6-1.2,3.4-2.1,5.2-2.8c1.9-0.7,3.7-1,5.5-1c1,0,2,0.1,3,0.4c1,0.2,1.8,0.6,2.5,1.1
			c0.7,0.5,1.2,1.2,1.5,2c0.3,0.8,0.2,1.8-0.2,3c-0.3,0.8-0.8,1.4-1.5,2c-0.7,0.5-1.5,0.8-2.5,0.8c-0.6,0-1.2-0.1-1.7-0.4
			c-0.5-0.3-0.6-0.8-0.4-1.4c0.2-0.5,0.6-1.2,1.1-1.9c0.5-0.8,0.9-1.4,1.1-1.9c0.3-0.9,0.1-1.5-0.6-2c-0.7-0.5-1.6-0.7-2.8-0.7
			c-0.8,0-1.7,0.1-2.7,0.3c-1,0.2-2,0.7-3,1.6c-1,0.8-2.1,2.1-3.2,3.7c-1.1,1.7-2.1,3.9-3.2,6.8c-0.6,1.6-1,3.2-1.4,4.6
			c-0.3,1.4-0.4,2.7-0.2,3.8c0.2,1.1,0.6,1.9,1.3,2.6c0.7,0.6,1.9,0.9,3.4,0.9c1.7,0,3.1-0.2,4.4-0.7c1.3-0.5,2.3-1.1,3.2-1.8
			c0.9-0.7,1.6-1.4,2.2-2.1c0.6-0.7,1-1.3,1.3-1.8L418.4,358.9z"/>
		<path class="st0" d="M431.6,351.1c-0.1,0.4-0.3,0.8-0.5,1.2c-0.2,0.4-0.4,0.9-0.6,1.5c-0.5,1.2-0.9,2.6-1.2,3.9
			c-0.3,1.4-0.5,2.6-0.4,3.7c0.1,1.1,0.5,2,1.3,2.7c0.7,0.7,1.9,1.1,3.6,1.1c1.7,0,3.1-0.2,4.4-0.7c1.3-0.5,2.3-1.1,3.2-1.8
			c0.9-0.7,1.6-1.4,2.2-2.1c0.6-0.7,1-1.3,1.3-1.8l0.8,0.2c-0.3,0.4-0.7,1-1.3,1.8c-0.6,0.8-1.4,1.6-2.4,2.3c-1,0.8-2.2,1.5-3.6,2
			c-1.4,0.6-3.1,0.9-5,0.9c-1.9,0-3.5-0.3-4.9-0.9c-1.4-0.6-2.5-1.5-3.2-2.6c-0.8-1.1-1.2-2.5-1.2-4.1c-0.1-1.6,0.2-3.3,0.9-5.3
			c0.6-1.7,1.5-3.3,2.8-4.9c1.2-1.6,2.7-3,4.2-4.2c1.6-1.2,3.3-2.2,5.1-2.9c1.8-0.7,3.6-1.1,5.4-1.1c1.1,0,2.1,0.2,3.2,0.6
			c1.1,0.4,2,1,2.7,1.8c0.7,0.9,1.2,2,1.4,3.4c0.2,1.4-0.1,3.1-0.9,5.2H431.6z M443.6,350.3c0.3-0.5,0.5-1,0.7-1.5
			c0.2-0.5,0.3-0.9,0.5-1.4c0.5-1.3,0.7-2.3,0.8-3.2c0.1-0.8,0-1.5-0.3-2c-0.3-0.5-0.7-0.8-1.2-1.1c-0.5-0.2-1.2-0.3-1.9-0.3
			c-1.3,0-2.4,0.3-3.5,0.8c-1,0.5-1.9,1.2-2.7,2.1c-0.8,0.9-1.5,1.9-2.2,3c-0.7,1.1-1.3,2.3-1.8,3.6H443.6z"/>
		<path class="st0" d="M452.6,357.2h0.6c-0.1,0.9-0.1,1.8,0,2.8c0.1,0.9,0.3,1.8,0.7,2.6c0.4,0.8,1,1.4,1.9,1.9
			c0.8,0.5,2,0.7,3.4,0.7c1.2,0,2.4-0.4,3.6-1.1c1.2-0.7,2.1-1.9,2.7-3.6c0.5-1.4,0.5-2.5,0-3c-0.5-0.6-1.2-1.1-2.1-1.4l-3.9-1.5
			c-0.5-0.2-1-0.4-1.6-0.7c-0.6-0.3-1-0.7-1.4-1.2c-0.4-0.5-0.6-1.2-0.7-2c-0.1-0.8,0.1-1.8,0.6-3.1c0.4-1.1,1-2,1.7-3
			c0.7-0.9,1.6-1.7,2.6-2.4c1-0.7,2-1.2,3.2-1.6c1.1-0.4,2.3-0.6,3.5-0.6c0.8,0,1.5,0.1,1.9,0.2c0.5,0.1,0.9,0.3,1.2,0.4
			c0.3,0.1,0.6,0.3,0.9,0.4c0.3,0.1,0.6,0.2,1,0.2c0.4,0,0.8-0.2,1.1-0.5h0.6l-2.4,6.5h-0.6c0-0.8,0-1.6,0-2.4
			c-0.1-0.8-0.2-1.5-0.5-2.1c-0.3-0.6-0.7-1.1-1.2-1.4c-0.6-0.3-1.3-0.5-2.3-0.5c-1.8,0-3.4,0.4-4.7,1.2c-1.3,0.8-2.2,1.9-2.7,3.3
			c-0.4,1.2-0.3,2.1,0.3,2.8c0.6,0.6,1.7,1.2,3.1,1.7l3.7,1.4c1.6,0.6,2.7,1.4,3.5,2.5c0.7,1.1,0.8,2.5,0.2,4.2c-0.4,1-0.9,2-1.7,3
			c-0.8,1-1.7,1.8-2.7,2.6c-1,0.7-2.2,1.3-3.5,1.8c-1.3,0.5-2.6,0.7-4.1,0.7c-0.8,0-1.6-0.1-2.2-0.3c-0.6-0.2-1.2-0.4-1.7-0.5
			c-0.5-0.2-1-0.4-1.4-0.5c-0.4-0.2-0.9-0.3-1.3-0.3c-0.4,0-0.8,0.1-1,0.3c-0.3,0.2-0.5,0.4-0.7,0.5h-0.6L452.6,357.2z"/>
		<path class="st0" d="M488.5,364.4h6.3l14.1-38.9h-6.3l0.3-0.8h18.3l-0.3,0.8h-6.3l-14.1,38.9h10.1c3.3,0,6.3-1,9-3.1
			c2.7-2.1,5.1-4.9,7.2-8.5h0.6l-4.5,12.4h-34.7L488.5,364.4z"/>
		<path class="st0" d="M527.4,364.4h6.3l14.1-38.9h-6.3l0.3-0.8h18.3l-0.3,0.8h-6.3l-14.1,38.9h10.1c3.3,0,6.3-1,9-3.1
			c2.7-2.1,5.1-4.9,7.2-8.5h0.6l-4.5,12.4h-34.7L527.4,364.4z"/>
		<path class="st0" d="M602.5,365.2h-0.9c-0.2-0.3-0.4-0.6-0.6-0.8c-0.3-0.2-0.7-0.4-1.5-0.4c-0.6,0-1.2,0.1-2,0.3s-1.6,0.4-2.5,0.7
			c-0.9,0.3-2,0.5-3.1,0.7c-1.1,0.2-2.3,0.3-3.6,0.3c-2.4,0-4.5-0.4-6.5-1.3c-1.9-0.9-3.5-2.3-4.8-4.3c-1.2-1.9-1.9-4.1-2.3-6.6
			c-0.3-2.5,0.1-5.5,1.3-8.8c1-2.8,2.5-5.5,4.5-8.1c2-2.6,4.2-4.8,6.7-6.8c2.5-2,5.2-3.5,8.1-4.7c2.9-1.2,5.8-1.7,8.7-1.7
			c1.2,0,2.2,0.1,3,0.3c0.8,0.2,1.5,0.5,2.2,0.8s1.2,0.5,1.7,0.8c0.5,0.2,1.1,0.3,1.6,0.3c0.8,0,1.3-0.1,1.8-0.4
			c0.4-0.2,0.8-0.5,1.2-0.8h0.9l-4.1,11.4h-0.6c0.2-1.4,0.3-2.9,0.2-4.3c0-1.4-0.3-2.6-0.9-3.7c-0.6-1.1-1.4-2-2.7-2.6
			c-1.2-0.7-2.9-1-5.1-1c-2,0-3.8,0.3-5.5,0.9c-1.7,0.6-3.2,1.5-4.5,2.5c-1.4,1-2.6,2.3-3.7,3.6c-1.1,1.4-2.1,2.8-2.9,4.4
			c-0.9,1.5-1.6,3.1-2.3,4.7c-0.7,1.6-1.3,3.1-1.8,4.5c-1.4,4-2.3,7.3-2.6,9.9c-0.3,2.6-0.2,4.7,0.4,6.2c0.6,1.5,1.6,2.6,3,3.2
			c1.4,0.6,3.1,0.9,5.1,0.9c2.5,0,4.7-0.4,6.5-1.1c1.8-0.7,3.4-1.7,4.8-2.8c1.4-1.2,2.6-2.5,3.6-3.9c1-1.5,2-2.9,2.9-4.3h0.6
			L602.5,365.2z"/>
	</g>
	<g>
		<polygon class="st1" points="975.1,146 969.3,146 966.1,158.6 962.8,146 957,146 955.8,165.1 959.9,165.1 960.5,150.9 
			964.1,164.9 968,164.9 971.6,150.9 972.2,165.1 976.3,165.1 		"/>
		<polygon class="st1" points="954.2,146 940.1,146 940.1,149.6 945,149.6 945,165.1 949.3,165.1 949.3,149.6 954.2,149.6 		"/>
	</g>
	<path class="st1" d="M865.1,31.9c-6.9,12.8-32.8,96.4-31.4,103.8c13.8-9.4,31.4-21.5,31.4-21.5s17.6,12.1,31.4,21.5
		C897.8,128.3,872,44.7,865.1,31.9z M862.4,100.4l-11.8,9.1l10.5-34.2h1.2V100.4z"/>
	<path class="st2" d="M865.1,1.8L865.1,1.8L865.1,1.8C865.1,1.8,865.1,1.8,865.1,1.8L865.1,1.8c-35.7,0-62.1,30-62.1,65.9
		c0,19.6,8,40.2,22.6,49.4c-8.5-10.4-14.6-24.1-14.6-39.1c0-31.9,24.2-57.7,54.1-57.7c29.9,0,54.1,25.8,54.1,57.7
		c0,15-6.1,28.7-14.6,39.1c14.6-9.1,22.6-29.7,22.6-49.4C927.1,31.8,900.7,1.8,865.1,1.8z"/>
	<g>
		<g>
			<path class="st3" d="M159.3,171.2c-0.1,23.8-4.8,44.9-13,65.2c-4.3,10.7-9.7,20.9-16.7,30.2c-10.8,14.4-24.7,24.5-41.9,29.9
				c-9.8,3.1-19.9,4.2-30.1,3.5c-10.5-0.7-20.5-3.5-29.5-9.2C16,282.9,8.4,271.8,4.6,258c-1.7-6-2.8-12.2-2.9-18.4
				c-0.1-3.4-0.4-6.7-0.3-10.1c0.1-8.2,1.1-16.4,2.4-24.6c2.3-14.5,6.1-28.6,11.8-42.2c4.2-10.1,9.6-19.5,16.2-28.2
				c7-9.2,15.3-16.9,25.4-22.8c9.1-5.3,18.9-8.5,29.4-9.8c3.1-0.4,6.2-0.8,9.3-0.8c13.7,0.1,26.9,2.3,38.6,10.1
				c8,5.3,13.6,12.5,17.5,21.2c4,9,6.3,18.5,7,28.3C159,164.9,159.2,169,159.3,171.2z M42.3,226.7c0.2,3.4,0.4,6.9,0.7,10.3
				c0.7,6.2,2.3,12.1,5.3,17.6c2.1,3.7,5.1,6.3,9,8c4,1.7,8.2,1.9,12.5,1.8c9.9-0.1,17.9-4.1,24.4-11.4c3.8-4.3,6.8-9.1,9.4-14.1
				c5.5-10.8,8.9-22.2,11.4-34c2.7-12.9,4.7-26,3.3-39.3c-0.6-5.4-1.6-10.6-4-15.5c-3.1-6.5-7.8-11.3-15-13.1c-5-1.2-10-1-15,0.3
				c-8.7,2.2-15.2,7.6-20.7,14.4c-5.5,6.8-9,14.7-11.9,22.9c-3.4,9.8-5.6,20-7.3,30.3C43.3,212,42.5,219.3,42.3,226.7z"/>
			<path class="st3" d="M157.8,295.6l25.5-135.4h39.5l-1.5,11.2c0,0-0.4,0.3,0,0c7.8-7.1,18.7-12.4,29.1-13.9
				c7.9-1.1,15.6-0.8,23.1,2.2c10.3,4.1,16.4,11.9,18.7,22.6c1.4,6.6,1,13.2-0.2,19.8c-2,11.8-17.7,93.5-17.7,93.5l-41.6,0
				c0,0,15.4-79.8,16.9-88.3c0.5-3,0.6-6.1-0.3-9c-1.4-4.6-4.7-7.2-9.5-7.3c-9.4-0.3-18.3,4.6-22.2,12.4
				c-2.6,4.6-18.5,92.2-18.5,92.2L157.8,295.6z"/>
			<path class="st3" d="M418.1,250.8c0,0-4.2,19.2-20,34c-5,4.7-11,8-17.4,10.4c-7.5,2.9-15.3,4.3-23.4,4.8
				c-9.3,0.6-18.4-0.3-27.2-3.4c-7.5-2.6-13.9-7-18.5-13.5c-3.9-5.5-6-11.8-7.2-18.4c-1.9-11.4-1.2-22.8,1.1-34.1
				c2.1-10.5,5.2-20.8,9.8-30.5c5.5-11.5,13-21.5,23.1-29.4c10-7.7,21.3-12.6,33.9-14.1c8.1-0.9,16.1-0.6,23.9,2
				c13.6,4.5,22.3,14,26.8,27.4c2,6,2.8,12.3,3,18.6c0.7,17.8-4.4,36.2-4.4,36.2h-78.6c0,0,0,0.1-0.2,2.5c-0.3,4.7-1,9.5-0.1,14.1
				c0.7,3.8,3.5,8.3,7.4,9.7c6.6,2.3,12.9,1.7,18.8-2.1c4.4-2.8,6.3-6.5,8.7-11.1c1-1.9,1.4-3.3,1.4-3.3H418.1z M350.4,210.6l35.1,0
				c0,0,0.3-1.8,0.4-3.5c0.3-4.8,0.2-7.9-1-11.4c-1.3-3.7-3.9-6.2-7.9-6.8c-5.9-0.9-11.3,0.3-15.8,4.4c-3.4,3-5.9,6.5-7.8,10.5
				C352.3,205.6,350.4,210.6,350.4,210.6z"/>
		</g>
		<g>
			<path class="st4" d="M535.8,229l59.3-124l62.8,0c0,0-16.4,85.6-19.5,101.4c-2.7,14.1-17.2,89.1-17.2,89.1h-42.4L605,160.2
				l-65.5,135.4l-34.5,0l-12.5-136.8L466,295.6l-40.2,0l37-190.5l63.9,0L535.8,229z"/>
			<path class="st4" d="M723,284.7c-1.1,0.8-1.9,1.3-2.6,1.9c-7.1,5.7-15.1,9.6-24.1,11.1c-5.7,0.9-11.5,1.1-17.2,0.4
				c-3.2-0.4-6.4-0.8-9.4-1.6c-14.2-3.4-21.4-15.2-21.9-27.8c-0.6-14.1,4.1-26.4,13-37.1c4.9-5.8,10.8-10.4,17.4-14.2
				c9.4-5.3,19.6-8,30.3-9.4c8.1-1.1,16.2-1.5,24.4-1.4c2.6,0,2.9-0.2,3.2-2.8c0.5-3.5,1.1-6.9,0.7-10.5c-0.4-3.8-2.6-6-5.9-7.1
				c-9.3-3.3-19.1,3.2-21.4,11.2c-0.4,1.3-0.6,2.7-0.9,4c-0.5,2.3-0.5,2.4-0.5,2.4h-42.9c0,0,0.2-1.2,0.2-1.6
				c2.9-16.2,11.2-28.7,25.8-36.7c8.9-4.8,18.5-7.6,28.6-8.3c5.3-0.4,10.6-0.7,15.8-0.4c9.9,0.5,19.5,2.4,28.2,7.7
				c9.6,5.8,14.2,14.4,14.7,25.6c0.4,8.7-1.5,17-3.2,25.4c-3.2,15.6-6.4,31.2-9.5,46.8c-2,9.9-3.1,17.1-3.3,27.2c0,1.9,0.7,6,0.7,6
				h-41C722.3,295.6,722.8,287.5,723,284.7z M724.5,234.7c0,0,0-0.1,0-0.1c-2.2,0.2-4.5,0.4-6.7,0.6c-5.6,0.7-11,2.2-15.9,5.1
				c-5.2,3.1-9.2,7.4-10.2,13.6c-1.3,8.2,2.6,14,11.5,13.7c5.4-0.2,10.2-2.5,14.2-6.3c3.5-3.4,6.3-7.3,7.9-11.9
				c1.4-4,2.6-8.1,3.7-12.1c0.6-2,0.2-2.5-1.9-2.5C726.3,234.6,725.4,234.7,724.5,234.7z"/>
			<path class="st2" d="M922.9,199.9c-0.3-5.9-1.4-11.6-3.5-17.1c-3.8-10.2-10.7-17.7-20.9-21.8c-7.7-3.1-15.7-3.5-23.8-2.6
				c-9.9,1.1-18.6,5.1-26.2,11.6c-0.2,0.2-0.4,0.3-0.7,0.5l1.9-9.7l-40.9,0l-35.6,183.7h41.2l11.2-58.5c0.7,0.6,1.5,1.3,1.7,1.6
				c3.6,3.3,7.7,5.9,12.4,7.5c6.4,2.2,13.1,2.4,19.7,1.8c12.7-1.1,23.6-6.7,32.9-15.2c7.1-6.4,12.6-14,17-22.5
				C919,240.7,924,221,922.9,199.9z M871.5,249.8c-2.9,5.5-6.7,10.1-12,13.4c-4.8,3-10.1,3.4-15.5,2c-4-1-6.6-3.8-8.2-7.5
				c-1.4-3.1-2.1-6.4-2.2-9.8c-0.3-14.1,2.8-27.4,8.8-40.1c2.6-5.4,6.2-10.2,11-14c3.8-2.9,8-4.8,12.7-5.1c6.2-0.3,10.6,2.2,12.8,8
				c1.8,4.6,2.2,9.5,2.1,14.4C880.7,224.7,877.9,237.7,871.5,249.8z"/>
		</g>
	</g>
</g>
</svg>
