<?xml version="1.0" encoding="UTF-8"?>
<svg width="211px" height="81px" viewBox="0 0 211 81" version="1.1" xmlns="http://www.w3.org/2000/svg" xmlns:xlink="http://www.w3.org/1999/xlink">
    <!-- Generator: Sketch 51.3 (57544) - http://www.bohemiancoding.com/sketch -->
    <title>contact-logo</title>
    <desc>Created with Sketch.</desc>
    <defs></defs>
    <g id="Page-1" stroke="none" stroke-width="1" fill="none" fill-rule="evenodd">
        <g id="Login" transform="translate(-418.000000, -112.000000)" fill-rule="nonzero">
            <g id="contact-logo" transform="translate(418.000000, 112.000000)">
                <polygon id="Shape" fill="#424242" points="10.0648918 79.8004926 11.4276206 79.8004926 14.2396007 71.1773399 12.8768719 71.1773399 12.9417637 71 15.7104825 71 15.7753744 77.7832512 15.797005 77.7832512 20.2745424 71 23 71 22.9351082 71.1773399 21.5723794 71.1773399 18.7603993 79.8004926 20.1231281 79.8004926 20.0582363 79.9778325 16.0998336 79.9778325 16.1647255 79.8004926 17.5274542 79.8004926 20.296173 71.2660099 20.2745424 71.2660099 14.4991681 80 14.391015 71.3546798 14.3693844 71.3546798 11.6222962 79.8004926 12.985025 79.8004926 12.9201331 79.9778325 10 79.9778325"></polygon>
                <polygon id="Shape" fill="#424242" points="10.0648918 79.8004926 11.4276206 79.8004926 14.2396007 71.1773399 12.8768719 71.1773399 12.9417637 71 15.7104825 71 15.7753744 77.7832512 15.797005 77.7832512 20.2745424 71 23 71 22.9351082 71.1773399 21.5723794 71.1773399 18.7603993 79.8004926 20.1231281 79.8004926 20.0582363 79.9778325 16.0998336 79.9778325 16.1647255 79.8004926 17.5274542 79.8004926 20.296173 71.2660099 20.2745424 71.2660099 14.4991681 80 14.391015 71.3546798 14.3693844 71.3546798 11.6222962 79.8004926 12.985025 79.8004926 12.9201331 79.9778325 10 79.9778325"></polygon>
                <path d="M21.0668706,79.8226601 L22.0476399,79.8226601 L23.741696,74.7684729 L22.7609267,74.7684729 L22.8277973,74.591133 L24.900787,74.591133 L23.1398603,79.8226601 L24.1206296,79.8226601 L24.053759,80 L21,80 L21.0668706,79.8226601 Z M24.6333045,71.6650246 C24.7001751,71.4876847 24.8116262,71.3325123 24.9899479,71.1995074 C25.1682695,71.0665025 25.3465912,71 25.5249129,71 C25.7032346,71 25.8369759,71.0665025 25.9261367,71.1995074 C26.0152976,71.3325123 26.0152976,71.4876847 25.9707172,71.6650246 C25.9038465,71.8423645 25.7923955,71.9975369 25.6140738,72.1305419 C25.4357521,72.2635468 25.2574304,72.3300493 25.0791087,72.3300493 C24.900787,72.3300493 24.7670457,72.2635468 24.6778849,72.1305419 C24.5664338,71.9975369 24.5664338,71.8423645 24.6333045,71.6650246 Z" id="Shape" fill="#424242"></path>
                <path d="M21.0668706,79.8226601 L22.0476399,79.8226601 L23.741696,74.7684729 L22.7609267,74.7684729 L22.8277973,74.591133 L24.900787,74.591133 L23.1398603,79.8226601 L24.1206296,79.8226601 L24.053759,80 L21,80 L21.0668706,79.8226601 Z M24.6333045,71.6650246 C24.7001751,71.4876847 24.8116262,71.3325123 24.9899479,71.1995074 C25.1682695,71.0665025 25.3465912,71 25.5249129,71 C25.7032346,71 25.8369759,71.0665025 25.9261367,71.1995074 C26.0152976,71.3325123 26.0152976,71.4876847 25.9707172,71.6650246 C25.9038465,71.8423645 25.7923955,71.9975369 25.6140738,72.1305419 C25.4357521,72.2635468 25.2574304,72.3300493 25.0791087,72.3300493 C24.900787,72.3300493 24.7670457,72.2635468 24.6778849,72.1305419 C24.5664338,71.9975369 24.5664338,71.8423645 24.6333045,71.6650246 Z" id="Shape" fill="#424242"></path>
                <path d="M24,79.84 L24.9139823,79.84 L26.4926791,75.28 L25.5786968,75.28 L25.6410137,75.12 L27.5520677,75.12 L27.1366212,76.34 L27.1573935,76.34 C27.2404828,76.24 27.3443445,76.12 27.4897507,75.96 C27.635157,75.8 27.8013356,75.66 28.0090589,75.52 C28.2167821,75.38 28.4660501,75.26 28.7360903,75.16 C29.0061305,75.06 29.3177154,75 29.6500726,75 C30.1693808,75 30.5432826,75.12 30.7925505,75.36 C31.0418185,75.6 31.0625908,75.98 30.8756398,76.52 L29.7331619,79.84 L30.6471443,79.84 L30.5848273,80 L27.759791,80 L27.822108,79.84 L28.7360903,79.84 L30.0032022,76.16 C30.1070638,75.86 30.1070638,75.62 30.0447468,75.44 C29.9616575,75.26 29.7747066,75.16 29.4631217,75.16 C29.2138538,75.16 28.9438135,75.22 28.6945456,75.32 C28.4245054,75.42 28.1752375,75.58 27.9467419,75.76 C27.697474,75.94 27.4897507,76.18 27.3027998,76.44 C27.1158489,76.7 26.9704426,76.98 26.866581,77.28 L25.973371,79.84 L26.8873533,79.84 L26.8250363,80 L24,80 L24,79.84 Z" id="Shape" fill="#424242"></path>
                <path d="M24,79.84 L24.9139823,79.84 L26.4926791,75.28 L25.5786968,75.28 L25.6410137,75.12 L27.5520677,75.12 L27.1366212,76.34 L27.1573935,76.34 C27.2404828,76.24 27.3443445,76.12 27.4897507,75.96 C27.635157,75.8 27.8013356,75.66 28.0090589,75.52 C28.2167821,75.38 28.4660501,75.26 28.7360903,75.16 C29.0061305,75.06 29.3177154,75 29.6500726,75 C30.1693808,75 30.5432826,75.12 30.7925505,75.36 C31.0418185,75.6 31.0625908,75.98 30.8756398,76.52 L29.7331619,79.84 L30.6471443,79.84 L30.5848273,80 L27.759791,80 L27.822108,79.84 L28.7360903,79.84 L30.0032022,76.16 C30.1070638,75.86 30.1070638,75.62 30.0447468,75.44 C29.9616575,75.26 29.7747066,75.16 29.4631217,75.16 C29.2138538,75.16 28.9438135,75.22 28.6945456,75.32 C28.4245054,75.42 28.1752375,75.58 27.9467419,75.76 C27.697474,75.94 27.4897507,76.18 27.3027998,76.44 C27.1158489,76.7 26.9704426,76.98 26.866581,77.28 L25.973371,79.84 L26.8873533,79.84 L26.8250363,80 L24,80 L24,79.84 Z" id="Shape" fill="#424242"></path>
                <path d="M34.652892,77.5615385 C34.6293604,77.6538462 34.5822973,77.7461538 34.5587657,77.8384615 C34.5117025,77.9307692 34.4881709,78.0461538 34.4411078,78.1846154 C34.3469815,78.4615385 34.2528551,78.7846154 34.1822604,79.0846154 C34.1116657,79.4076923 34.0881341,79.6846154 34.1351972,79.9384615 C34.1587288,80.1923077 34.2763867,80.4 34.4646394,80.5615385 C34.652892,80.7230769 34.935271,80.8153846 35.3117762,80.8153846 C35.6882815,80.8153846 36.0412552,80.7692308 36.3471658,80.6538462 C36.6295447,80.5384615 36.8883921,80.4 37.1001763,80.2384615 C37.3119606,80.0769231 37.4766816,79.9153846 37.5943395,79.7538462 C37.7119974,79.5923077 37.8296553,79.4538462 37.9002501,79.3384615 L38.0885027,79.3846154 C38.017908,79.4769231 37.9237817,79.6153846 37.8061238,79.8 C37.6649343,79.9846154 37.4766816,80.1692308 37.2648974,80.3307692 C37.0295816,80.5153846 36.7707342,80.6769231 36.4412921,80.7923077 C36.11185,80.9307692 35.7353447,81 35.2882447,81 C34.8411446,81 34.4646394,80.9307692 34.1116657,80.7923077 C33.7822235,80.6538462 33.5233761,80.4461538 33.3351235,80.1923077 C33.1468709,79.9384615 33.029213,79.6153846 33.0056814,79.2461538 C32.9821498,78.8769231 33.029213,78.4846154 33.193934,78.0230769 C33.3351235,77.6307692 33.5233761,77.2615385 33.8057551,76.8923077 C34.0881341,76.5230769 34.4175762,76.2 34.7705499,75.9230769 C35.1470552,75.6461538 35.5235605,75.4153846 35.9471289,75.2538462 C36.3706974,75.0923077 36.7942658,75 37.2178342,75 C37.4766816,75 37.7119974,75.0461538 37.9708448,75.1384615 C38.2296922,75.2307692 38.4414764,75.3692308 38.6297291,75.5538462 C38.8179817,75.7615385 38.9356396,76.0153846 38.9827028,76.3384615 C39.0297659,76.6615385 38.9827028,77.0538462 38.8179817,77.5384615 L34.652892,77.5384615 L34.652892,77.5615385 Z M37.4766816,77.3769231 C37.5472764,77.2615385 37.5943395,77.1461538 37.6178711,77.0307692 C37.6649343,76.9153846 37.6884659,76.8230769 37.735529,76.7076923 C37.8296553,76.4076923 37.9002501,76.1769231 37.9002501,75.9692308 C37.9002501,75.7846154 37.8767185,75.6230769 37.8061238,75.5076923 C37.735529,75.3923077 37.6414027,75.3230769 37.5237448,75.2538462 C37.3825553,75.2076923 37.2413658,75.1846154 37.0766448,75.1846154 C36.7707342,75.1846154 36.5118868,75.2538462 36.276571,75.3692308 C36.0412552,75.4846154 35.829471,75.6461538 35.6412184,75.8538462 C35.4529657,76.0615385 35.2882447,76.2923077 35.1470552,76.5461538 C35.0058657,76.8 34.8646762,77.0769231 34.7470183,77.3769231 L37.4766816,77.3769231 Z" id="Shape" fill="#424242"></path>
                <path d="M34.652892,77.5615385 C34.6293604,77.6538462 34.5822973,77.7461538 34.5587657,77.8384615 C34.5117025,77.9307692 34.4881709,78.0461538 34.4411078,78.1846154 C34.3469815,78.4615385 34.2528551,78.7846154 34.1822604,79.0846154 C34.1116657,79.4076923 34.0881341,79.6846154 34.1351972,79.9384615 C34.1587288,80.1923077 34.2763867,80.4 34.4646394,80.5615385 C34.652892,80.7230769 34.935271,80.8153846 35.3117762,80.8153846 C35.6882815,80.8153846 36.0412552,80.7692308 36.3471658,80.6538462 C36.6295447,80.5384615 36.8883921,80.4 37.1001763,80.2384615 C37.3119606,80.0769231 37.4766816,79.9153846 37.5943395,79.7538462 C37.7119974,79.5923077 37.8296553,79.4538462 37.9002501,79.3384615 L38.0885027,79.3846154 C38.017908,79.4769231 37.9237817,79.6153846 37.8061238,79.8 C37.6649343,79.9846154 37.4766816,80.1692308 37.2648974,80.3307692 C37.0295816,80.5153846 36.7707342,80.6769231 36.4412921,80.7923077 C36.11185,80.9307692 35.7353447,81 35.2882447,81 C34.8411446,81 34.4646394,80.9307692 34.1116657,80.7923077 C33.7822235,80.6538462 33.5233761,80.4461538 33.3351235,80.1923077 C33.1468709,79.9384615 33.029213,79.6153846 33.0056814,79.2461538 C32.9821498,78.8769231 33.029213,78.4846154 33.193934,78.0230769 C33.3351235,77.6307692 33.5233761,77.2615385 33.8057551,76.8923077 C34.0881341,76.5230769 34.4175762,76.2 34.7705499,75.9230769 C35.1470552,75.6461538 35.5235605,75.4153846 35.9471289,75.2538462 C36.3706974,75.0923077 36.7942658,75 37.2178342,75 C37.4766816,75 37.7119974,75.0461538 37.9708448,75.1384615 C38.2296922,75.2307692 38.4414764,75.3692308 38.6297291,75.5538462 C38.8179817,75.7615385 38.9356396,76.0153846 38.9827028,76.3384615 C39.0297659,76.6615385 38.9827028,77.0538462 38.8179817,77.5384615 L34.652892,77.5384615 L34.652892,77.5615385 Z M37.4766816,77.3769231 C37.5472764,77.2615385 37.5943395,77.1461538 37.6178711,77.0307692 C37.6649343,76.9153846 37.6884659,76.8230769 37.735529,76.7076923 C37.8296553,76.4076923 37.9002501,76.1769231 37.9002501,75.9692308 C37.9002501,75.7846154 37.8767185,75.6230769 37.8061238,75.5076923 C37.735529,75.3923077 37.6414027,75.3230769 37.5237448,75.2538462 C37.3825553,75.2076923 37.2413658,75.1846154 37.0766448,75.1846154 C36.7707342,75.1846154 36.5118868,75.2538462 36.276571,75.3692308 C36.0412552,75.4846154 35.829471,75.6461538 35.6412184,75.8538462 C35.4529657,76.0615385 35.2882447,76.2923077 35.1470552,76.5461538 C35.0058657,76.8 34.8646762,77.0769231 34.7470183,77.3769231 L37.4766816,77.3769231 Z" id="Shape" fill="#424242"></path>
                <path d="M38.083045,79.8406375 L38.9965398,79.8406375 L40.5743945,75.2988048 L39.6608997,75.2988048 L39.7231834,75.1394422 L41.633218,75.1394422 L41.2387543,76.2749004 L41.2595156,76.2749004 C41.3217993,76.1553785 41.4256055,76.0358566 41.550173,75.8964143 C41.6747405,75.7569721 41.8200692,75.6175299 41.9861592,75.4780876 C42.1522491,75.3386454 42.3391003,75.2390438 42.5467128,75.1394422 C42.7543253,75.0398406 42.982699,75 43.2318339,75 C43.4186851,75 43.5640138,75.0199203 43.6678201,75.0796813 C43.7716263,75.1394422 43.8754325,75.1992032 43.916955,75.2988048 C43.9792388,75.3784861 44,75.4780876 44,75.5976096 C44,75.7171315 43.9792388,75.8167331 43.9377163,75.936255 C43.8546713,76.1952191 43.7301038,76.3545817 43.5847751,76.4342629 C43.4394464,76.5139442 43.2941176,76.5537849 43.1280277,76.5537849 C42.7750865,76.5537849 42.650519,76.4541833 42.7128028,76.2350598 C42.733564,76.1752988 42.7543253,76.1155378 42.7958478,76.0756972 C42.816609,76.0358566 42.8581315,75.9960159 42.899654,75.9561753 C42.9411765,75.9163347 42.9619377,75.876494 43.0034602,75.8167331 C43.0449827,75.7569721 43.0657439,75.6972112 43.1072664,75.5976096 C43.1903114,75.3585657 43.0865052,75.2390438 42.816609,75.2390438 C42.6920415,75.2390438 42.5467128,75.2788845 42.3598616,75.3784861 C42.1937716,75.4780876 42.0069204,75.5976096 41.8200692,75.7768924 C41.633218,75.9561753 41.467128,76.1553785 41.3010381,76.4143426 C41.1349481,76.6533865 40.9896194,76.9322709 40.8858131,77.250996 L39.9930796,79.8406375 L41.0103806,79.8406375 L40.9480969,80 L38,80 L38.083045,79.8406375 Z" id="Shape" fill="#424242"></path>
                <path d="M38.083045,79.8406375 L38.9965398,79.8406375 L40.5743945,75.2988048 L39.6608997,75.2988048 L39.7231834,75.1394422 L41.633218,75.1394422 L41.2387543,76.2749004 L41.2595156,76.2749004 C41.3217993,76.1553785 41.4256055,76.0358566 41.550173,75.8964143 C41.6747405,75.7569721 41.8200692,75.6175299 41.9861592,75.4780876 C42.1522491,75.3386454 42.3391003,75.2390438 42.5467128,75.1394422 C42.7543253,75.0398406 42.982699,75 43.2318339,75 C43.4186851,75 43.5640138,75.0199203 43.6678201,75.0796813 C43.7716263,75.1394422 43.8754325,75.1992032 43.916955,75.2988048 C43.9792388,75.3784861 44,75.4780876 44,75.5976096 C44,75.7171315 43.9792388,75.8167331 43.9377163,75.936255 C43.8546713,76.1952191 43.7301038,76.3545817 43.5847751,76.4342629 C43.4394464,76.5139442 43.2941176,76.5537849 43.1280277,76.5537849 C42.7750865,76.5537849 42.650519,76.4541833 42.7128028,76.2350598 C42.733564,76.1752988 42.7543253,76.1155378 42.7958478,76.0756972 C42.816609,76.0358566 42.8581315,75.9960159 42.899654,75.9561753 C42.9411765,75.9163347 42.9619377,75.876494 43.0034602,75.8167331 C43.0449827,75.7569721 43.0657439,75.6972112 43.1072664,75.5976096 C43.1903114,75.3585657 43.0865052,75.2390438 42.816609,75.2390438 C42.6920415,75.2390438 42.5467128,75.2788845 42.3598616,75.3784861 C42.1937716,75.4780876 42.0069204,75.5976096 41.8200692,75.7768924 C41.633218,75.9561753 41.467128,76.1553785 41.3010381,76.4143426 C41.1349481,76.6533865 40.9896194,76.9322709 40.8858131,77.250996 L39.9930796,79.8406375 L41.0103806,79.8406375 L40.9480969,80 L38,80 L38.083045,79.8406375 Z" id="Shape" fill="#424242"></path>
                <path d="M48.7420635,80.6756757 C48.6230159,80.7683398 48.484127,80.8378378 48.3253968,80.9073359 C48.1666667,80.976834 47.9880952,81 47.8095238,81 C47.452381,81 47.2142857,80.9073359 47.0952381,80.7220077 C46.9761905,80.5366795 46.9365079,80.2818533 46.9761905,79.957529 L46.9563492,79.957529 C46.8968254,80.027027 46.8373016,80.1428571 46.7380952,80.2586873 C46.6587302,80.3745174 46.5396825,80.4903475 46.4007937,80.6061776 C46.2619048,80.7220077 46.0833333,80.8146718 45.8849206,80.8841699 C45.6865079,80.953668 45.4484127,81 45.1706349,81 C44.8531746,81 44.6150794,80.953668 44.4563492,80.8841699 C44.297619,80.7915058 44.1785714,80.6988417 44.0992063,80.5830116 C44.0198413,80.4671815 44,80.3281853 44,80.1660232 C44,80.003861 44.0396825,79.8648649 44.0793651,79.7490347 C44.1587302,79.4478764 44.297619,79.1930502 44.4563492,79.007722 C44.6150794,78.8223938 44.7936508,78.6833977 44.9920635,78.5675676 C45.1904762,78.4517375 45.4087302,78.3590734 45.6269841,78.2895753 C45.8452381,78.2200772 46.0833333,78.1505792 46.3214286,78.0579151 C46.5992063,77.965251 46.8174603,77.8725869 47.015873,77.8030888 C47.1944444,77.7335907 47.3531746,77.6409266 47.4722222,77.5482625 C47.5912698,77.4555985 47.6904762,77.3166023 47.7698413,77.1776062 C47.8492063,77.015444 47.9285714,76.8069498 48.0079365,76.5521236 C48.0674603,76.3436293 48.1071429,76.1583012 48.1269841,75.996139 C48.1468254,75.8339768 48.1468254,75.6949807 48.1269841,75.5791506 C48.1071429,75.4633205 48.047619,75.3706564 47.9484127,75.3011583 C47.8492063,75.2316602 47.7103175,75.2084942 47.531746,75.2084942 C47.2738095,75.2084942 47.0555556,75.2548263 46.8769841,75.3706564 C46.6785714,75.4633205 46.5595238,75.6254826 46.5,75.8571429 C46.4603175,75.996139 46.4206349,76.1583012 46.4007937,76.2972973 C46.3809524,76.4362934 46.3611111,76.5521236 46.3412698,76.6216216 C46.3015873,76.7374517 46.2420635,76.8532819 46.1428571,76.9227799 C46.0436508,77.015444 45.9246032,77.03861 45.7857143,77.03861 C45.5277778,77.03861 45.3888889,76.992278 45.3690476,76.8764479 C45.3293651,76.7606178 45.3492063,76.6447876 45.3888889,76.4594595 C45.4484127,76.2741313 45.5277778,76.0888031 45.6666667,75.9034749 C45.7857143,75.7181467 45.9444444,75.5791506 46.1428571,75.4401544 C46.3214286,75.3011583 46.5396825,75.1853282 46.7777778,75.1158301 C47.015873,75.046332 47.2936508,75 47.5714286,75 C47.9087302,75 48.1865079,75.046332 48.4047619,75.1621622 C48.6031746,75.2548263 48.7619048,75.3938224 48.8611111,75.5791506 C48.9603175,75.7413127 49,75.9498069 49,76.1583012 C49,76.3667954 48.9603175,76.5984556 48.9007937,76.8301158 L47.968254,80.1196911 C47.8888889,80.3745174 47.8888889,80.5366795 47.9285714,80.6293436 C47.968254,80.7220077 48.047619,80.7683398 48.1865079,80.7683398 C48.265873,80.7683398 48.3650794,80.7451737 48.4642857,80.7220077 C48.5634921,80.6756757 48.6626984,80.6293436 48.7619048,80.5598456 L48.7420635,80.6756757 Z M47.6507937,77.5945946 L47.6309524,77.5945946 C47.5912698,77.7104247 47.4325397,77.8262548 47.1547619,77.9420849 L46.202381,78.3359073 C45.9246032,78.4517375 45.7063492,78.6138996 45.5079365,78.8223938 C45.3293651,79.030888 45.1904762,79.2857143 45.0912698,79.5868726 C45.0515873,79.7258687 45.031746,79.8648649 45.0119048,80.003861 C44.9920635,80.1428571 44.9920635,80.2586873 45.031746,80.3745174 C45.0515873,80.4903475 45.1111111,80.5830116 45.2103175,80.6525097 C45.2896825,80.7220077 45.4285714,80.7683398 45.6071429,80.7683398 C45.8650794,80.7683398 46.0833333,80.6988417 46.2619048,80.5830116 C46.4603175,80.4671815 46.6190476,80.3050193 46.7380952,80.1196911 C46.8571429,79.9343629 46.9761905,79.7258687 47.0753968,79.5173745 C47.1547619,79.3088803 47.234127,79.1003861 47.2738095,78.9382239 L47.6507937,77.5945946 Z" id="Shape" fill="#424242"></path>
                <path d="M48.7420635,80.6756757 C48.6230159,80.7683398 48.484127,80.8378378 48.3253968,80.9073359 C48.1666667,80.976834 47.9880952,81 47.8095238,81 C47.452381,81 47.2142857,80.9073359 47.0952381,80.7220077 C46.9761905,80.5366795 46.9365079,80.2818533 46.9761905,79.957529 L46.9563492,79.957529 C46.8968254,80.027027 46.8373016,80.1428571 46.7380952,80.2586873 C46.6587302,80.3745174 46.5396825,80.4903475 46.4007937,80.6061776 C46.2619048,80.7220077 46.0833333,80.8146718 45.8849206,80.8841699 C45.6865079,80.953668 45.4484127,81 45.1706349,81 C44.8531746,81 44.6150794,80.953668 44.4563492,80.8841699 C44.297619,80.7915058 44.1785714,80.6988417 44.0992063,80.5830116 C44.0198413,80.4671815 44,80.3281853 44,80.1660232 C44,80.003861 44.0396825,79.8648649 44.0793651,79.7490347 C44.1587302,79.4478764 44.297619,79.1930502 44.4563492,79.007722 C44.6150794,78.8223938 44.7936508,78.6833977 44.9920635,78.5675676 C45.1904762,78.4517375 45.4087302,78.3590734 45.6269841,78.2895753 C45.8452381,78.2200772 46.0833333,78.1505792 46.3214286,78.0579151 C46.5992063,77.965251 46.8174603,77.8725869 47.015873,77.8030888 C47.1944444,77.7335907 47.3531746,77.6409266 47.4722222,77.5482625 C47.5912698,77.4555985 47.6904762,77.3166023 47.7698413,77.1776062 C47.8492063,77.015444 47.9285714,76.8069498 48.0079365,76.5521236 C48.0674603,76.3436293 48.1071429,76.1583012 48.1269841,75.996139 C48.1468254,75.8339768 48.1468254,75.6949807 48.1269841,75.5791506 C48.1071429,75.4633205 48.047619,75.3706564 47.9484127,75.3011583 C47.8492063,75.2316602 47.7103175,75.2084942 47.531746,75.2084942 C47.2738095,75.2084942 47.0555556,75.2548263 46.8769841,75.3706564 C46.6785714,75.4633205 46.5595238,75.6254826 46.5,75.8571429 C46.4603175,75.996139 46.4206349,76.1583012 46.4007937,76.2972973 C46.3809524,76.4362934 46.3611111,76.5521236 46.3412698,76.6216216 C46.3015873,76.7374517 46.2420635,76.8532819 46.1428571,76.9227799 C46.0436508,77.015444 45.9246032,77.03861 45.7857143,77.03861 C45.5277778,77.03861 45.3888889,76.992278 45.3690476,76.8764479 C45.3293651,76.7606178 45.3492063,76.6447876 45.3888889,76.4594595 C45.4484127,76.2741313 45.5277778,76.0888031 45.6666667,75.9034749 C45.7857143,75.7181467 45.9444444,75.5791506 46.1428571,75.4401544 C46.3214286,75.3011583 46.5396825,75.1853282 46.7777778,75.1158301 C47.015873,75.046332 47.2936508,75 47.5714286,75 C47.9087302,75 48.1865079,75.046332 48.4047619,75.1621622 C48.6031746,75.2548263 48.7619048,75.3938224 48.8611111,75.5791506 C48.9603175,75.7413127 49,75.9498069 49,76.1583012 C49,76.3667954 48.9603175,76.5984556 48.9007937,76.8301158 L47.968254,80.1196911 C47.8888889,80.3745174 47.8888889,80.5366795 47.9285714,80.6293436 C47.968254,80.7220077 48.047619,80.7683398 48.1865079,80.7683398 C48.265873,80.7683398 48.3650794,80.7451737 48.4642857,80.7220077 C48.5634921,80.6756757 48.6626984,80.6293436 48.7619048,80.5598456 L48.7420635,80.6756757 Z M47.6507937,77.5945946 L47.6309524,77.5945946 C47.5912698,77.7104247 47.4325397,77.8262548 47.1547619,77.9420849 L46.202381,78.3359073 C45.9246032,78.4517375 45.7063492,78.6138996 45.5079365,78.8223938 C45.3293651,79.030888 45.1904762,79.2857143 45.0912698,79.5868726 C45.0515873,79.7258687 45.031746,79.8648649 45.0119048,80.003861 C44.9920635,80.1428571 44.9920635,80.2586873 45.031746,80.3745174 C45.0515873,80.4903475 45.1111111,80.5830116 45.2103175,80.6525097 C45.2896825,80.7220077 45.4285714,80.7683398 45.6071429,80.7683398 C45.8650794,80.7683398 46.0833333,80.6988417 46.2619048,80.5830116 C46.4603175,80.4671815 46.6190476,80.3050193 46.7380952,80.1196911 C46.8571429,79.9343629 46.9761905,79.7258687 47.0753968,79.5173745 C47.1547619,79.3088803 47.234127,79.1003861 47.2738095,78.9382239 L47.6507937,77.5945946 Z" id="Shape" fill="#424242"></path>
                <polygon id="Shape" fill="#424242" points="50.0436681 79.8243902 51.0043668 79.8243902 53.8646288 71.1756098 52.9039301 71.1756098 52.9694323 71 55 71 52.0742358 79.8243902 53.0349345 79.8243902 52.9694323 80 50 80"></polygon>
                <polygon id="Shape" fill="#424242" points="50.0436681 79.8243902 51.0043668 79.8243902 53.8646288 71.1756098 52.9039301 71.1756098 52.9694323 71 55 71 52.0742358 79.8243902 53.0349345 79.8243902 52.9694323 80 50 80"></polygon>
                <path d="M57.8958333,77.1690141 L58.0208333,77.1690141 C57.9583333,77.5915493 57.9583333,77.971831 58,78.2676056 C58.0416667,78.5633803 58.1041667,78.8169014 58.2083333,79.0070423 C58.3125,79.1971831 58.4375,79.3450704 58.5833333,79.4507042 C58.7291667,79.556338 58.8958333,79.6408451 59.0625,79.6830986 C59.2291667,79.7253521 59.3958333,79.7676056 59.5625,79.7676056 C59.7291667,79.7676056 59.8958333,79.7887324 60.0416667,79.7887324 C60.4583333,79.7887324 60.8333333,79.7253521 61.125,79.5985915 C61.4375,79.471831 61.7083333,79.3028169 61.9166667,79.1126761 C62.1458333,78.9225352 62.3125,78.7112676 62.4583333,78.4788732 C62.6041667,78.2464789 62.6875,78.0352113 62.75,77.8450704 C62.8333333,77.5704225 62.875,77.3169014 62.8333333,77.1267606 C62.7916667,76.9366197 62.7291667,76.7464789 62.6041667,76.6197183 C62.5,76.471831 62.3541667,76.3661972 62.2083333,76.2816901 C62.0416667,76.1971831 61.8958333,76.1338028 61.75,76.0704225 L60.5208333,75.6478873 C59.9375,75.4577465 59.5416667,75.1830986 59.3333333,74.8450704 C59.1041667,74.5070423 59.1041667,74.084507 59.2708333,73.5140845 C59.3958333,73.1549296 59.5625,72.8169014 59.7916667,72.5211268 C60.0208333,72.2042254 60.2916667,71.9507042 60.5833333,71.7183099 C60.8958333,71.4859155 61.2083333,71.3169014 61.5833333,71.1901408 C61.9375,71.0633803 62.3125,71 62.6875,71 C62.9583333,71 63.1875,71.0211268 63.3541667,71.0633803 C63.5208333,71.1056338 63.6666667,71.1690141 63.7708333,71.2323944 C63.875,71.2957746 63.9791667,71.3380282 64.0833333,71.4014085 C64.1666667,71.443662 64.2708333,71.4647887 64.3958333,71.4647887 C64.5,71.4647887 64.5625,71.443662 64.625,71.4225352 C64.6666667,71.4014085 64.75,71.3169014 64.8333333,71.2112676 L65,71.2112676 L64.2916667,73.3873239 L64.1458333,73.3873239 C64.1875,73.0915493 64.2083333,72.8169014 64.1875,72.5422535 C64.1666667,72.2676056 64.0833333,72.0352113 63.9791667,71.8239437 C63.8541667,71.6126761 63.7083333,71.4647887 63.4791667,71.3380282 C63.2708333,71.2112676 62.9791667,71.1478873 62.6458333,71.1478873 C62.4583333,71.1478873 62.2291667,71.1690141 62,71.2323944 C61.75,71.2746479 61.5208333,71.3802817 61.2708333,71.5070423 C61.0208333,71.6338028 60.8125,71.8028169 60.6041667,72.0140845 C60.3958333,72.2253521 60.25,72.4788732 60.1458333,72.8169014 C60.0625,73.0704225 60.0416667,73.2816901 60.0833333,73.471831 C60.125,73.6619718 60.2083333,73.8098592 60.3333333,73.9366197 C60.4583333,74.0633803 60.6041667,74.1690141 60.7708333,74.2535211 C60.9375,74.3380282 61.125,74.4014085 61.3125,74.4859155 L62.6041667,74.9507042 C62.7291667,74.9929577 62.9166667,75.056338 63.1041667,75.1408451 C63.3125,75.2253521 63.5,75.3309859 63.6458333,75.5 C63.8125,75.6690141 63.9166667,75.8802817 64,76.1338028 C64.0625,76.3873239 64.0416667,76.7253521 63.8958333,77.1478873 C63.7708333,77.528169 63.5833333,77.8873239 63.3333333,78.2253521 C63.0833333,78.5633803 62.7916667,78.8591549 62.4375,79.1338028 C62.0833333,79.3873239 61.7083333,79.5985915 61.2916667,79.7676056 C60.875,79.915493 60.4166667,80 59.9583333,80 C59.7916667,80 59.6458333,80 59.5208333,80 C59.3958333,80 59.2708333,79.9788732 59.1666667,79.9788732 C59.0625,79.9577465 58.9583333,79.9366197 58.8541667,79.915493 C58.75,79.8943662 58.6458333,79.8732394 58.5208333,79.8309859 C58.375,79.7887324 58.2291667,79.7253521 58.0625,79.6619718 C57.8958333,79.5985915 57.75,79.556338 57.625,79.556338 C57.5,79.556338 57.4166667,79.5774648 57.3541667,79.6197183 C57.2916667,79.6619718 57.2291667,79.7253521 57.1875,79.8098592 L57,79.8098592 L57.8958333,77.1690141 Z" id="Shape" fill="#424242"></path>
                <path d="M57.8958333,77.1690141 L58.0208333,77.1690141 C57.9583333,77.5915493 57.9583333,77.971831 58,78.2676056 C58.0416667,78.5633803 58.1041667,78.8169014 58.2083333,79.0070423 C58.3125,79.1971831 58.4375,79.3450704 58.5833333,79.4507042 C58.7291667,79.556338 58.8958333,79.6408451 59.0625,79.6830986 C59.2291667,79.7253521 59.3958333,79.7676056 59.5625,79.7676056 C59.7291667,79.7676056 59.8958333,79.7887324 60.0416667,79.7887324 C60.4583333,79.7887324 60.8333333,79.7253521 61.125,79.5985915 C61.4375,79.471831 61.7083333,79.3028169 61.9166667,79.1126761 C62.1458333,78.9225352 62.3125,78.7112676 62.4583333,78.4788732 C62.6041667,78.2464789 62.6875,78.0352113 62.75,77.8450704 C62.8333333,77.5704225 62.875,77.3169014 62.8333333,77.1267606 C62.7916667,76.9366197 62.7291667,76.7464789 62.6041667,76.6197183 C62.5,76.471831 62.3541667,76.3661972 62.2083333,76.2816901 C62.0416667,76.1971831 61.8958333,76.1338028 61.75,76.0704225 L60.5208333,75.6478873 C59.9375,75.4577465 59.5416667,75.1830986 59.3333333,74.8450704 C59.1041667,74.5070423 59.1041667,74.084507 59.2708333,73.5140845 C59.3958333,73.1549296 59.5625,72.8169014 59.7916667,72.5211268 C60.0208333,72.2042254 60.2916667,71.9507042 60.5833333,71.7183099 C60.8958333,71.4859155 61.2083333,71.3169014 61.5833333,71.1901408 C61.9375,71.0633803 62.3125,71 62.6875,71 C62.9583333,71 63.1875,71.0211268 63.3541667,71.0633803 C63.5208333,71.1056338 63.6666667,71.1690141 63.7708333,71.2323944 C63.875,71.2957746 63.9791667,71.3380282 64.0833333,71.4014085 C64.1666667,71.443662 64.2708333,71.4647887 64.3958333,71.4647887 C64.5,71.4647887 64.5625,71.443662 64.625,71.4225352 C64.6666667,71.4014085 64.75,71.3169014 64.8333333,71.2112676 L65,71.2112676 L64.2916667,73.3873239 L64.1458333,73.3873239 C64.1875,73.0915493 64.2083333,72.8169014 64.1875,72.5422535 C64.1666667,72.2676056 64.0833333,72.0352113 63.9791667,71.8239437 C63.8541667,71.6126761 63.7083333,71.4647887 63.4791667,71.3380282 C63.2708333,71.2112676 62.9791667,71.1478873 62.6458333,71.1478873 C62.4583333,71.1478873 62.2291667,71.1690141 62,71.2323944 C61.75,71.2746479 61.5208333,71.3802817 61.2708333,71.5070423 C61.0208333,71.6338028 60.8125,71.8028169 60.6041667,72.0140845 C60.3958333,72.2253521 60.25,72.4788732 60.1458333,72.8169014 C60.0625,73.0704225 60.0416667,73.2816901 60.0833333,73.471831 C60.125,73.6619718 60.2083333,73.8098592 60.3333333,73.9366197 C60.4583333,74.0633803 60.6041667,74.1690141 60.7708333,74.2535211 C60.9375,74.3380282 61.125,74.4014085 61.3125,74.4859155 L62.6041667,74.9507042 C62.7291667,74.9929577 62.9166667,75.056338 63.1041667,75.1408451 C63.3125,75.2253521 63.5,75.3309859 63.6458333,75.5 C63.8125,75.6690141 63.9166667,75.8802817 64,76.1338028 C64.0625,76.3873239 64.0416667,76.7253521 63.8958333,77.1478873 C63.7708333,77.528169 63.5833333,77.8873239 63.3333333,78.2253521 C63.0833333,78.5633803 62.7916667,78.8591549 62.4375,79.1338028 C62.0833333,79.3873239 61.7083333,79.5985915 61.2916667,79.7676056 C60.875,79.915493 60.4166667,80 59.9583333,80 C59.7916667,80 59.6458333,80 59.5208333,80 C59.3958333,80 59.2708333,79.9788732 59.1666667,79.9788732 C59.0625,79.9577465 58.9583333,79.9366197 58.8541667,79.915493 C58.75,79.8943662 58.6458333,79.8732394 58.5208333,79.8309859 C58.375,79.7887324 58.2291667,79.7253521 58.0625,79.6619718 C57.8958333,79.5985915 57.75,79.556338 57.625,79.556338 C57.5,79.556338 57.4166667,79.5774648 57.3541667,79.6197183 C57.2916667,79.6619718 57.2291667,79.7253521 57.1875,79.8098592 L57,79.8098592 L57.8958333,77.1690141 Z" id="Shape" fill="#424242"></path>
                <path d="M67.652892,77.5615385 C67.6293604,77.6538462 67.5822973,77.7461538 67.5587657,77.8384615 C67.5117025,77.9307692 67.4881709,78.0461538 67.4411078,78.1846154 C67.3469815,78.4615385 67.2528551,78.7846154 67.1822604,79.0846154 C67.1116657,79.4076923 67.0881341,79.6846154 67.1351972,79.9384615 C67.1587288,80.1923077 67.2763867,80.4 67.4646394,80.5615385 C67.652892,80.7230769 67.935271,80.8153846 68.3117762,80.8153846 C68.7118131,80.8153846 69.0412552,80.7692308 69.3471658,80.6538462 C69.6295447,80.5384615 69.8883921,80.4 70.1001763,80.2384615 C70.3119606,80.0769231 70.4766816,79.9153846 70.5943395,79.7538462 C70.7119974,79.5923077 70.8296553,79.4538462 70.9002501,79.3384615 L71.0885027,79.3846154 C71.017908,79.4769231 70.9237817,79.6153846 70.8061238,79.8 C70.6649343,79.9846154 70.4766816,80.1692308 70.2648974,80.3307692 C70.0295816,80.5153846 69.7707342,80.6769231 69.4412921,80.7923077 C69.11185,80.9307692 68.7353447,81 68.2882447,81 C67.8411446,81 67.4646394,80.9307692 67.1116657,80.7923077 C66.7822235,80.6538462 66.5233761,80.4461538 66.3351235,80.1923077 C66.1468709,79.9384615 66.029213,79.6153846 66.0056814,79.2461538 C65.9821498,78.8769231 66.029213,78.4846154 66.193934,78.0230769 C66.3351235,77.6307692 66.5233761,77.2615385 66.8057551,76.8923077 C67.0881341,76.5230769 67.4175762,76.2 67.7705499,75.9230769 C68.1470552,75.6461538 68.5235605,75.4153846 68.9471289,75.2538462 C69.3706974,75.0923077 69.7942658,75 70.2178342,75 C70.4766816,75 70.7119974,75.0461538 70.9708448,75.1384615 C71.2296922,75.2307692 71.4414764,75.3692308 71.6297291,75.5538462 C71.8179817,75.7615385 71.9356396,76.0153846 71.9827028,76.3384615 C72.0297659,76.6615385 71.9827028,77.0538462 71.8179817,77.5384615 L67.652892,77.5384615 L67.652892,77.5615385 Z M70.4766816,77.3769231 C70.5472764,77.2615385 70.5943395,77.1461538 70.6178711,77.0307692 C70.6649343,76.9153846 70.6884659,76.8230769 70.735529,76.7076923 C70.8296553,76.4076923 70.9002501,76.1769231 70.9002501,75.9692308 C70.9002501,75.7846154 70.8767185,75.6230769 70.8061238,75.5076923 C70.735529,75.3923077 70.6414027,75.3230769 70.5237448,75.2538462 C70.3825553,75.2076923 70.2413658,75.1846154 70.0766448,75.1846154 C69.7707342,75.1846154 69.5118868,75.2538462 69.276571,75.3692308 C69.0412552,75.4846154 68.829471,75.6461538 68.6412184,75.8538462 C68.4529657,76.0615385 68.2882447,76.2923077 68.1470552,76.5461538 C68.0058657,76.8 67.8646762,77.0769231 67.7470183,77.3769231 L70.4766816,77.3769231 Z" id="Shape" fill="#424242"></path>
                <path d="M67.652892,77.5615385 C67.6293604,77.6538462 67.5822973,77.7461538 67.5587657,77.8384615 C67.5117025,77.9307692 67.4881709,78.0461538 67.4411078,78.1846154 C67.3469815,78.4615385 67.2528551,78.7846154 67.1822604,79.0846154 C67.1116657,79.4076923 67.0881341,79.6846154 67.1351972,79.9384615 C67.1587288,80.1923077 67.2763867,80.4 67.4646394,80.5615385 C67.652892,80.7230769 67.935271,80.8153846 68.3117762,80.8153846 C68.7118131,80.8153846 69.0412552,80.7692308 69.3471658,80.6538462 C69.6295447,80.5384615 69.8883921,80.4 70.1001763,80.2384615 C70.3119606,80.0769231 70.4766816,79.9153846 70.5943395,79.7538462 C70.7119974,79.5923077 70.8296553,79.4538462 70.9002501,79.3384615 L71.0885027,79.3846154 C71.017908,79.4769231 70.9237817,79.6153846 70.8061238,79.8 C70.6649343,79.9846154 70.4766816,80.1692308 70.2648974,80.3307692 C70.0295816,80.5153846 69.7707342,80.6769231 69.4412921,80.7923077 C69.11185,80.9307692 68.7353447,81 68.2882447,81 C67.8411446,81 67.4646394,80.9307692 67.1116657,80.7923077 C66.7822235,80.6538462 66.5233761,80.4461538 66.3351235,80.1923077 C66.1468709,79.9384615 66.029213,79.6153846 66.0056814,79.2461538 C65.9821498,78.8769231 66.029213,78.4846154 66.193934,78.0230769 C66.3351235,77.6307692 66.5233761,77.2615385 66.8057551,76.8923077 C67.0881341,76.5230769 67.4175762,76.2 67.7705499,75.9230769 C68.1470552,75.6461538 68.5235605,75.4153846 68.9471289,75.2538462 C69.3706974,75.0923077 69.7942658,75 70.2178342,75 C70.4766816,75 70.7119974,75.0461538 70.9708448,75.1384615 C71.2296922,75.2307692 71.4414764,75.3692308 71.6297291,75.5538462 C71.8179817,75.7615385 71.9356396,76.0153846 71.9827028,76.3384615 C72.0297659,76.6615385 71.9827028,77.0538462 71.8179817,77.5384615 L67.652892,77.5384615 L67.652892,77.5615385 Z M70.4766816,77.3769231 C70.5472764,77.2615385 70.5943395,77.1461538 70.6178711,77.0307692 C70.6649343,76.9153846 70.6884659,76.8230769 70.735529,76.7076923 C70.8296553,76.4076923 70.9002501,76.1769231 70.9002501,75.9692308 C70.9002501,75.7846154 70.8767185,75.6230769 70.8061238,75.5076923 C70.735529,75.3923077 70.6414027,75.3230769 70.5237448,75.2538462 C70.3825553,75.2076923 70.2413658,75.1846154 70.0766448,75.1846154 C69.7707342,75.1846154 69.5118868,75.2538462 69.276571,75.3692308 C69.0412552,75.4846154 68.829471,75.6461538 68.6412184,75.8538462 C68.4529657,76.0615385 68.2882447,76.2923077 68.1470552,76.5461538 C68.0058657,76.8 67.8646762,77.0769231 67.7470183,77.3769231 L70.4766816,77.3769231 Z" id="Shape" fill="#424242"></path>
                <path d="M71.083045,79.8406375 L71.9965398,79.8406375 L73.5743945,75.2988048 L72.6608997,75.2988048 L72.7231834,75.1394422 L74.633218,75.1394422 L74.2387543,76.2749004 L74.2595156,76.2749004 C74.3217993,76.1553785 74.4256055,76.0358566 74.550173,75.8964143 C74.6747405,75.7569721 74.8200692,75.6175299 74.9861592,75.4780876 C75.1522491,75.3386454 75.3391003,75.2390438 75.5467128,75.1394422 C75.7543253,75.0398406 75.982699,75 76.2318339,75 C76.4186851,75 76.5640138,75.0199203 76.6678201,75.0796813 C76.7716263,75.1394422 76.8754325,75.1992032 76.916955,75.2988048 C76.9792388,75.3784861 77,75.4780876 77,75.5976096 C77,75.7171315 76.9792388,75.8167331 76.9377163,75.936255 C76.8546713,76.1952191 76.7301038,76.3545817 76.5847751,76.4342629 C76.4394464,76.5139442 76.2941176,76.5537849 76.1280277,76.5537849 C75.7750865,76.5537849 75.650519,76.4541833 75.7128028,76.2350598 C75.733564,76.1752988 75.7543253,76.1155378 75.7958478,76.0756972 C75.816609,76.0358566 75.8581315,75.9960159 75.899654,75.9561753 C75.9411765,75.9163347 75.9619377,75.876494 76.0034602,75.8167331 C76.0449827,75.7569721 76.0657439,75.6972112 76.1072664,75.5976096 C76.1903114,75.3585657 76.0865052,75.2390438 75.816609,75.2390438 C75.6920415,75.2390438 75.5467128,75.2788845 75.3598616,75.3784861 C75.1937716,75.4780876 75.0069204,75.5976096 74.8200692,75.7768924 C74.633218,75.9561753 74.467128,76.1553785 74.3010381,76.4143426 C74.1349481,76.6533865 73.9896194,76.9322709 73.8858131,77.250996 L72.9930796,79.8406375 L74.0103806,79.8406375 L73.9480969,80 L71,80 L71.083045,79.8406375 Z" id="Shape" fill="#424242"></path>
                <path d="M71.083045,79.8406375 L71.9965398,79.8406375 L73.5743945,75.2988048 L72.6608997,75.2988048 L72.7231834,75.1394422 L74.633218,75.1394422 L74.2387543,76.2749004 L74.2595156,76.2749004 C74.3217993,76.1553785 74.4256055,76.0358566 74.550173,75.8964143 C74.6747405,75.7569721 74.8200692,75.6175299 74.9861592,75.4780876 C75.1522491,75.3386454 75.3391003,75.2390438 75.5467128,75.1394422 C75.7543253,75.0398406 75.982699,75 76.2318339,75 C76.4186851,75 76.5640138,75.0199203 76.6678201,75.0796813 C76.7716263,75.1394422 76.8754325,75.1992032 76.916955,75.2988048 C76.9792388,75.3784861 77,75.4780876 77,75.5976096 C77,75.7171315 76.9792388,75.8167331 76.9377163,75.936255 C76.8546713,76.1952191 76.7301038,76.3545817 76.5847751,76.4342629 C76.4394464,76.5139442 76.2941176,76.5537849 76.1280277,76.5537849 C75.7750865,76.5537849 75.650519,76.4541833 75.7128028,76.2350598 C75.733564,76.1752988 75.7543253,76.1155378 75.7958478,76.0756972 C75.816609,76.0358566 75.8581315,75.9960159 75.899654,75.9561753 C75.9411765,75.9163347 75.9619377,75.876494 76.0034602,75.8167331 C76.0449827,75.7569721 76.0657439,75.6972112 76.1072664,75.5976096 C76.1903114,75.3585657 76.0865052,75.2390438 75.816609,75.2390438 C75.6920415,75.2390438 75.5467128,75.2788845 75.3598616,75.3784861 C75.1937716,75.4780876 75.0069204,75.5976096 74.8200692,75.7768924 C74.633218,75.9561753 74.467128,76.1553785 74.3010381,76.4143426 C74.1349481,76.6533865 73.9896194,76.9322709 73.8858131,77.250996 L72.9930796,79.8406375 L74.0103806,79.8406375 L73.9480969,80 L71,80 L71.083045,79.8406375 Z" id="Shape" fill="#424242"></path>
                <polygon id="Shape" fill="#424242" points="77.0633803 75 79.9788732 75 79.915493 75.1825095 78.9225352 75.1825095 79.2183099 79.2661597 82.0915493 75.1825095 81.1197183 75.1825095 81.1830986 75 83 75 82.9366197 75.1825095 82.2816901 75.1825095 78.2253521 81 77.8239437 75.1825095 77 75.1825095"></polygon>
                <polygon id="Shape" fill="#424242" points="77.0633803 75 79.9788732 75 79.915493 75.1825095 78.9225352 75.1825095 79.2183099 79.2661597 82.0915493 75.1825095 81.1197183 75.1825095 81.1830986 75 83 75 82.9366197 75.1825095 82.2816901 75.1825095 78.2253521 81 77.8239437 75.1825095 77 75.1825095"></polygon>
                <path d="M82.0447801,79.8226601 L83.0299412,79.8226601 L84.7315833,74.7684729 L83.7464221,74.7684729 L83.8135922,74.591133 L85.8958647,74.591133 L84.1270526,79.8226601 L85.1122138,79.8226601 L85.0450437,80 L82,80 L82.0447801,79.8226601 Z M85.6271844,71.6650246 C85.6943545,71.4876847 85.8063046,71.3325123 85.9854248,71.1995074 C86.1645451,71.0665025 86.3436653,71 86.5227855,71 C86.7019057,71 86.8362459,71.0665025 86.925806,71.1995074 C87.0153661,71.3325123 87.0153661,71.4876847 86.970586,71.6650246 C86.9034159,71.8423645 86.7914658,71.9975369 86.6123456,72.1305419 C86.4332254,72.2635468 86.2541052,72.3300493 86.0749849,72.3300493 C85.8958647,72.3300493 85.7615246,72.2635468 85.6719645,72.1305419 C85.5824043,71.9975369 85.5600143,71.8423645 85.6271844,71.6650246 Z" id="Shape" fill="#424242"></path>
                <path d="M82.0447801,79.8226601 L83.0299412,79.8226601 L84.7315833,74.7684729 L83.7464221,74.7684729 L83.8135922,74.591133 L85.8958647,74.591133 L84.1270526,79.8226601 L85.1122138,79.8226601 L85.0450437,80 L82,80 L82.0447801,79.8226601 Z M85.6271844,71.6650246 C85.6943545,71.4876847 85.8063046,71.3325123 85.9854248,71.1995074 C86.1645451,71.0665025 86.3436653,71 86.5227855,71 C86.7019057,71 86.8362459,71.0665025 86.925806,71.1995074 C87.0153661,71.3325123 87.0153661,71.4876847 86.970586,71.6650246 C86.9034159,71.8423645 86.7914658,71.9975369 86.6123456,72.1305419 C86.4332254,72.2635468 86.2541052,72.3300493 86.0749849,72.3300493 C85.8958647,72.3300493 85.7615246,72.2635468 85.6719645,72.1305419 C85.5824043,71.9975369 85.5600143,71.8423645 85.6271844,71.6650246 Z" id="Shape" fill="#424242"></path>
                <path d="M92.0017315,79.3846154 C91.9323084,79.4769231 91.8397442,79.6153846 91.724039,79.8 C91.5851927,79.9846154 91.4000644,80.1692308 91.191795,80.3307692 C90.9603845,80.5153846 90.705833,80.6769231 90.3818584,80.7923077 C90.0578838,80.9307692 89.6876271,81 89.2479473,81 C88.9239727,81 88.576857,80.9538462 88.2528824,80.8384615 C87.9289078,80.7230769 87.6512152,80.5615385 87.4429458,80.3307692 C87.2115354,80.1 87.0726891,79.8 87.026407,79.4076923 C86.9569839,79.0384615 87.026407,78.5769231 87.2115354,78.0230769 C87.3503817,77.5846154 87.5586511,77.1923077 87.8594846,76.8230769 C88.1371772,76.4538462 88.4611518,76.1307692 88.8314085,75.8769231 C89.2016652,75.6 89.5950629,75.3923077 90.0116017,75.2307692 C90.4281405,75.0692308 90.8678203,75 91.2843591,75 C91.5157696,75 91.74718,75.0230769 91.9785904,75.0923077 C92.2100009,75.1384615 92.4182703,75.2307692 92.5802576,75.3461538 C92.7422449,75.4615385 92.8579501,75.6230769 92.9505143,75.8076923 C93.0199374,75.9923077 93.0199374,76.2230769 92.9273733,76.5 C92.8579501,76.6846154 92.7653859,76.8230769 92.6033986,76.9615385 C92.4414113,77.0769231 92.256283,77.1461538 92.0480136,77.1461538 C91.9091673,77.1461538 91.7703211,77.1230769 91.6546158,77.0538462 C91.5389106,76.9846154 91.5157696,76.8692308 91.5620517,76.7307692 C91.6083337,76.6153846 91.6777569,76.4538462 91.7934621,76.2923077 C91.9091673,76.1076923 92.0017315,75.9692308 92.0248725,75.8538462 C92.0942957,75.6461538 92.0480136,75.5076923 91.8860263,75.3923077 C91.724039,75.2769231 91.5157696,75.2307692 91.238077,75.2307692 C91.0529487,75.2307692 90.8446793,75.2538462 90.6132689,75.3 C90.3818584,75.3461538 90.173589,75.4615385 89.9190375,75.6692308 C89.6876271,75.8538462 89.4562167,76.1538462 89.2016652,76.5461538 C88.9702547,76.9384615 88.7388443,77.4461538 88.5074339,78.1153846 C88.3917286,78.4846154 88.2760234,78.8538462 88.2297413,79.1769231 C88.1603182,79.5 88.1603182,79.8 88.2066003,80.0538462 C88.2528824,80.3076923 88.3685876,80.4923077 88.5305749,80.6538462 C88.7157033,80.7923077 88.9702547,80.8615385 89.3405114,80.8615385 C89.7339092,80.8615385 90.0578838,80.8153846 90.3587174,80.7 C90.6364099,80.5846154 90.8909614,80.4461538 91.0992308,80.2846154 C91.3075002,80.1230769 91.4694875,79.9615385 91.5851927,79.8 C91.7008979,79.6384615 91.8166031,79.5 91.8860263,79.3846154 L92.0017315,79.3846154 Z" id="Shape" fill="#424242"></path>
                <path d="M92.0017315,79.3846154 C91.9323084,79.4769231 91.8397442,79.6153846 91.724039,79.8 C91.5851927,79.9846154 91.4000644,80.1692308 91.191795,80.3307692 C90.9603845,80.5153846 90.705833,80.6769231 90.3818584,80.7923077 C90.0578838,80.9307692 89.6876271,81 89.2479473,81 C88.9239727,81 88.576857,80.9538462 88.2528824,80.8384615 C87.9289078,80.7230769 87.6512152,80.5615385 87.4429458,80.3307692 C87.2115354,80.1 87.0726891,79.8 87.026407,79.4076923 C86.9569839,79.0384615 87.026407,78.5769231 87.2115354,78.0230769 C87.3503817,77.5846154 87.5586511,77.1923077 87.8594846,76.8230769 C88.1371772,76.4538462 88.4611518,76.1307692 88.8314085,75.8769231 C89.2016652,75.6 89.5950629,75.3923077 90.0116017,75.2307692 C90.4281405,75.0692308 90.8678203,75 91.2843591,75 C91.5157696,75 91.74718,75.0230769 91.9785904,75.0923077 C92.2100009,75.1384615 92.4182703,75.2307692 92.5802576,75.3461538 C92.7422449,75.4615385 92.8579501,75.6230769 92.9505143,75.8076923 C93.0199374,75.9923077 93.0199374,76.2230769 92.9273733,76.5 C92.8579501,76.6846154 92.7653859,76.8230769 92.6033986,76.9615385 C92.4414113,77.0769231 92.256283,77.1461538 92.0480136,77.1461538 C91.9091673,77.1461538 91.7703211,77.1230769 91.6546158,77.0538462 C91.5389106,76.9846154 91.5157696,76.8692308 91.5620517,76.7307692 C91.6083337,76.6153846 91.6777569,76.4538462 91.7934621,76.2923077 C91.9091673,76.1076923 92.0017315,75.9692308 92.0248725,75.8538462 C92.0942957,75.6461538 92.0480136,75.5076923 91.8860263,75.3923077 C91.724039,75.2769231 91.5157696,75.2307692 91.238077,75.2307692 C91.0529487,75.2307692 90.8446793,75.2538462 90.6132689,75.3 C90.3818584,75.3461538 90.173589,75.4615385 89.9190375,75.6692308 C89.6876271,75.8538462 89.4562167,76.1538462 89.2016652,76.5461538 C88.9702547,76.9384615 88.7388443,77.4461538 88.5074339,78.1153846 C88.3917286,78.4846154 88.2760234,78.8538462 88.2297413,79.1769231 C88.1603182,79.5 88.1603182,79.8 88.2066003,80.0538462 C88.2528824,80.3076923 88.3685876,80.4923077 88.5305749,80.6538462 C88.7157033,80.7923077 88.9702547,80.8615385 89.3405114,80.8615385 C89.7339092,80.8615385 90.0578838,80.8153846 90.3587174,80.7 C90.6364099,80.5846154 90.8909614,80.4461538 91.0992308,80.2846154 C91.3075002,80.1230769 91.4694875,79.9615385 91.5851927,79.8 C91.7008979,79.6384615 91.8166031,79.5 91.8860263,79.3846154 L92.0017315,79.3846154 Z" id="Shape" fill="#424242"></path>
                <path d="M94.652892,77.5615385 C94.6293604,77.6538462 94.5822973,77.7461538 94.5587657,77.8384615 C94.5117025,77.9307692 94.4881709,78.0461538 94.4411078,78.1846154 C94.3469815,78.4615385 94.2528551,78.7846154 94.1822604,79.0846154 C94.1116657,79.4076923 94.0881341,79.6846154 94.1351972,79.9384615 C94.1587288,80.1923077 94.2763867,80.4 94.4646394,80.5615385 C94.652892,80.7230769 94.935271,80.8153846 95.3117762,80.8153846 C95.6882815,80.8153846 96.0412552,80.7692308 96.3471658,80.6538462 C96.6295447,80.5384615 96.8883921,80.4 97.1001763,80.2384615 C97.3119606,80.0769231 97.4766816,79.9153846 97.5943395,79.7538462 C97.7119974,79.5923077 97.8296553,79.4538462 97.9002501,79.3384615 L98.0885027,79.3846154 C98.017908,79.4769231 97.9237817,79.6153846 97.8061238,79.8 C97.6649343,79.9846154 97.4766816,80.1692308 97.2648974,80.3307692 C97.0295816,80.5153846 96.7707342,80.6769231 96.4412921,80.7923077 C96.11185,80.9307692 95.7353447,81 95.2882447,81 C94.8411446,81 94.4646394,80.9307692 94.1116657,80.7923077 C93.7822235,80.6538462 93.5233761,80.4461538 93.3351235,80.1923077 C93.1468709,79.9384615 93.029213,79.6153846 93.0056814,79.2461538 C92.9821498,78.8769231 93.029213,78.4846154 93.193934,78.0230769 C93.3351235,77.6307692 93.5233761,77.2615385 93.8057551,76.8923077 C94.0881341,76.5230769 94.4175762,76.2 94.7705499,75.9230769 C95.1470552,75.6461538 95.5235605,75.4153846 95.9471289,75.2538462 C96.3706974,75.0923077 96.7942658,75 97.2178342,75 C97.4766816,75 97.7119974,75.0461538 97.9708448,75.1384615 C98.2296922,75.2307692 98.4414764,75.3692308 98.6297291,75.5538462 C98.8179817,75.7615385 98.9356396,76.0153846 98.9827028,76.3384615 C99.0297659,76.6615385 98.9827028,77.0538462 98.8179817,77.5384615 L94.652892,77.5384615 L94.652892,77.5615385 Z M97.45315,77.3769231 C97.5237448,77.2615385 97.5708079,77.1461538 97.5943395,77.0307692 C97.6414027,76.9153846 97.6649343,76.8230769 97.7119974,76.7076923 C97.8061238,76.4076923 97.8767185,76.1769231 97.8767185,75.9692308 C97.8767185,75.7846154 97.8531869,75.6230769 97.7825922,75.5076923 C97.7119974,75.3923077 97.6178711,75.3230769 97.5002132,75.2538462 C97.3590237,75.2076923 97.2178342,75.1846154 97.0531132,75.1846154 C96.7472026,75.1846154 96.4883553,75.2538462 96.2530395,75.3692308 C96.0177237,75.4846154 95.8059394,75.6461538 95.6176868,75.8538462 C95.4294341,76.0615385 95.2647131,76.2923077 95.1235236,76.5461538 C94.9823341,76.8 94.8411446,77.0769231 94.7234867,77.3769231 L97.45315,77.3769231 Z" id="Shape" fill="#424242"></path>
                <path d="M94.652892,77.5615385 C94.6293604,77.6538462 94.5822973,77.7461538 94.5587657,77.8384615 C94.5117025,77.9307692 94.4881709,78.0461538 94.4411078,78.1846154 C94.3469815,78.4615385 94.2528551,78.7846154 94.1822604,79.0846154 C94.1116657,79.4076923 94.0881341,79.6846154 94.1351972,79.9384615 C94.1587288,80.1923077 94.2763867,80.4 94.4646394,80.5615385 C94.652892,80.7230769 94.935271,80.8153846 95.3117762,80.8153846 C95.6882815,80.8153846 96.0412552,80.7692308 96.3471658,80.6538462 C96.6295447,80.5384615 96.8883921,80.4 97.1001763,80.2384615 C97.3119606,80.0769231 97.4766816,79.9153846 97.5943395,79.7538462 C97.7119974,79.5923077 97.8296553,79.4538462 97.9002501,79.3384615 L98.0885027,79.3846154 C98.017908,79.4769231 97.9237817,79.6153846 97.8061238,79.8 C97.6649343,79.9846154 97.4766816,80.1692308 97.2648974,80.3307692 C97.0295816,80.5153846 96.7707342,80.6769231 96.4412921,80.7923077 C96.11185,80.9307692 95.7353447,81 95.2882447,81 C94.8411446,81 94.4646394,80.9307692 94.1116657,80.7923077 C93.7822235,80.6538462 93.5233761,80.4461538 93.3351235,80.1923077 C93.1468709,79.9384615 93.029213,79.6153846 93.0056814,79.2461538 C92.9821498,78.8769231 93.029213,78.4846154 93.193934,78.0230769 C93.3351235,77.6307692 93.5233761,77.2615385 93.8057551,76.8923077 C94.0881341,76.5230769 94.4175762,76.2 94.7705499,75.9230769 C95.1470552,75.6461538 95.5235605,75.4153846 95.9471289,75.2538462 C96.3706974,75.0923077 96.7942658,75 97.2178342,75 C97.4766816,75 97.7119974,75.0461538 97.9708448,75.1384615 C98.2296922,75.2307692 98.4414764,75.3692308 98.6297291,75.5538462 C98.8179817,75.7615385 98.9356396,76.0153846 98.9827028,76.3384615 C99.0297659,76.6615385 98.9827028,77.0538462 98.8179817,77.5384615 L94.652892,77.5384615 L94.652892,77.5615385 Z M97.45315,77.3769231 C97.5237448,77.2615385 97.5708079,77.1461538 97.5943395,77.0307692 C97.6414027,76.9153846 97.6649343,76.8230769 97.7119974,76.7076923 C97.8061238,76.4076923 97.8767185,76.1769231 97.8767185,75.9692308 C97.8767185,75.7846154 97.8531869,75.6230769 97.7825922,75.5076923 C97.7119974,75.3923077 97.6178711,75.3230769 97.5002132,75.2538462 C97.3590237,75.2076923 97.2178342,75.1846154 97.0531132,75.1846154 C96.7472026,75.1846154 96.4883553,75.2538462 96.2530395,75.3692308 C96.0177237,75.4846154 95.8059394,75.6461538 95.6176868,75.8538462 C95.4294341,76.0615385 95.2647131,76.2923077 95.1235236,76.5461538 C94.9823341,76.8 94.8411446,77.0769231 94.7234867,77.3769231 L97.45315,77.3769231 Z" id="Shape" fill="#424242"></path>
                <path d="M99.5274262,78.9692308 L99.6540084,78.9692308 C99.6540084,79.1769231 99.6540084,79.3846154 99.6751055,79.6153846 C99.6962025,79.8230769 99.7594937,80.0307692 99.8438819,80.2153846 C99.92827,80.4 100.075949,80.5384615 100.265823,80.6538462 C100.455696,80.7692308 100.687764,80.8153846 100.983122,80.8153846 C101.236287,80.8153846 101.489451,80.7230769 101.742616,80.5615385 C101.995781,80.4 102.185654,80.1230769 102.291139,79.7307692 C102.396624,79.4076923 102.375527,79.1538462 102.270042,79.0384615 C102.164557,78.9 101.995781,78.7846154 101.827004,78.7153846 L101.004219,78.3692308 C100.898734,78.3230769 100.793249,78.2769231 100.666667,78.2076923 C100.540084,78.1384615 100.434599,78.0461538 100.350211,77.9307692 C100.265823,77.8153846 100.223629,77.6538462 100.202532,77.4692308 C100.181435,77.2846154 100.223629,77.0538462 100.308017,76.7538462 C100.392405,76.5 100.49789,76.2923077 100.64557,76.0615385 C100.793249,75.8538462 100.983122,75.6692308 101.172996,75.5076923 C101.362869,75.3461538 101.594937,75.2307692 101.827004,75.1384615 C102.059072,75.0461538 102.312236,75 102.565401,75 C102.734177,75 102.881857,75.0230769 102.987342,75.0461538 C103.092827,75.0692308 103.177215,75.1153846 103.240506,75.1384615 C103.303797,75.1615385 103.367089,75.2076923 103.43038,75.2307692 C103.493671,75.2538462 103.556962,75.2769231 103.64135,75.2769231 C103.725738,75.2769231 103.810127,75.2307692 103.873418,75.1615385 L104,75.1615385 L103.535865,76.6615385 L103.409283,76.6615385 C103.409283,76.4769231 103.409283,76.2923077 103.388186,76.1076923 C103.367089,75.9230769 103.324895,75.7615385 103.2827,75.6230769 C103.219409,75.4846154 103.135021,75.3692308 103.008439,75.3 C102.881857,75.2307692 102.71308,75.1846154 102.523207,75.1846154 C102.14346,75.1846154 101.805907,75.2769231 101.552743,75.4615385 C101.278481,75.6461538 101.109705,75.9 101.004219,76.2230769 C100.919831,76.5 100.940928,76.7076923 101.088608,76.8692308 C101.21519,77.0076923 101.447257,77.1461538 101.763713,77.2615385 L102.544304,77.5846154 C102.881857,77.7230769 103.135021,77.9076923 103.2827,78.1615385 C103.451477,78.4153846 103.472574,78.7384615 103.345992,79.1307692 C103.2827,79.3615385 103.156118,79.5923077 103.008439,79.8230769 C102.860759,80.0538462 102.670886,80.2384615 102.459916,80.4230769 C102.248945,80.5846154 101.995781,80.7230769 101.742616,80.8384615 C101.468354,80.9538462 101.194093,81 100.877637,81 C100.708861,81 100.540084,80.9769231 100.413502,80.9307692 C100.28692,80.8846154 100.160338,80.8384615 100.033755,80.8153846 C99.92827,80.7692308 99.8227848,80.7230769 99.7383966,80.7 C99.6540084,80.6538462 99.5485232,80.6307692 99.464135,80.6307692 C99.3797468,80.6307692 99.3164557,80.6538462 99.2531646,80.7 C99.2109705,80.7461538 99.1476793,80.7923077 99.1265823,80.8153846 L99,80.8153846 L99.5274262,78.9692308 Z" id="Shape" fill="#424242"></path>
                <path d="M99.5274262,78.9692308 L99.6540084,78.9692308 C99.6540084,79.1769231 99.6540084,79.3846154 99.6751055,79.6153846 C99.6962025,79.8230769 99.7594937,80.0307692 99.8438819,80.2153846 C99.92827,80.4 100.075949,80.5384615 100.265823,80.6538462 C100.455696,80.7692308 100.687764,80.8153846 100.983122,80.8153846 C101.236287,80.8153846 101.489451,80.7230769 101.742616,80.5615385 C101.995781,80.4 102.185654,80.1230769 102.291139,79.7307692 C102.396624,79.4076923 102.375527,79.1538462 102.270042,79.0384615 C102.164557,78.9 101.995781,78.7846154 101.827004,78.7153846 L101.004219,78.3692308 C100.898734,78.3230769 100.793249,78.2769231 100.666667,78.2076923 C100.540084,78.1384615 100.434599,78.0461538 100.350211,77.9307692 C100.265823,77.8153846 100.223629,77.6538462 100.202532,77.4692308 C100.181435,77.2846154 100.223629,77.0538462 100.308017,76.7538462 C100.392405,76.5 100.49789,76.2923077 100.64557,76.0615385 C100.793249,75.8538462 100.983122,75.6692308 101.172996,75.5076923 C101.362869,75.3461538 101.594937,75.2307692 101.827004,75.1384615 C102.059072,75.0461538 102.312236,75 102.565401,75 C102.734177,75 102.881857,75.0230769 102.987342,75.0461538 C103.092827,75.0692308 103.177215,75.1153846 103.240506,75.1384615 C103.303797,75.1615385 103.367089,75.2076923 103.43038,75.2307692 C103.493671,75.2538462 103.556962,75.2769231 103.64135,75.2769231 C103.725738,75.2769231 103.810127,75.2307692 103.873418,75.1615385 L104,75.1615385 L103.535865,76.6615385 L103.409283,76.6615385 C103.409283,76.4769231 103.409283,76.2923077 103.388186,76.1076923 C103.367089,75.9230769 103.324895,75.7615385 103.2827,75.6230769 C103.219409,75.4846154 103.135021,75.3692308 103.008439,75.3 C102.881857,75.2307692 102.71308,75.1846154 102.523207,75.1846154 C102.14346,75.1846154 101.805907,75.2769231 101.552743,75.4615385 C101.278481,75.6461538 101.109705,75.9 101.004219,76.2230769 C100.919831,76.5 100.940928,76.7076923 101.088608,76.8692308 C101.21519,77.0076923 101.447257,77.1461538 101.763713,77.2615385 L102.544304,77.5846154 C102.881857,77.7230769 103.135021,77.9076923 103.2827,78.1615385 C103.451477,78.4153846 103.472574,78.7384615 103.345992,79.1307692 C103.2827,79.3615385 103.156118,79.5923077 103.008439,79.8230769 C102.860759,80.0538462 102.670886,80.2384615 102.459916,80.4230769 C102.248945,80.5846154 101.995781,80.7230769 101.742616,80.8384615 C101.468354,80.9538462 101.194093,81 100.877637,81 C100.708861,81 100.540084,80.9769231 100.413502,80.9307692 C100.28692,80.8846154 100.160338,80.8384615 100.033755,80.8153846 C99.92827,80.7692308 99.8227848,80.7230769 99.7383966,80.7 C99.6540084,80.6538462 99.5485232,80.6307692 99.464135,80.6307692 C99.3797468,80.6307692 99.3164557,80.6538462 99.2531646,80.7 C99.2109705,80.7461538 99.1476793,80.7923077 99.1265823,80.8153846 L99,80.8153846 L99.5274262,78.9692308 Z" id="Shape" fill="#424242"></path>
                <path d="M107.046392,79.8004926 L108.507732,79.8004926 L111.523196,71.1773399 L110.061856,71.1773399 L110.131443,71 L114.376289,71 L114.306701,71.1773399 L112.845361,71.1773399 L109.829897,79.8004926 L112.17268,79.8004926 C112.938144,79.8004926 113.634021,79.5788177 114.237113,79.1133005 C114.840206,78.6477833 115.373711,78.0270936 115.860825,77.229064 L116,77.229064 L115.048969,80 L107,80 L107.046392,79.8004926 Z" id="Shape" fill="#424242"></path>
                <path d="M107.046392,79.8004926 L108.507732,79.8004926 L111.523196,71.1773399 L110.061856,71.1773399 L110.131443,71 L114.376289,71 L114.306701,71.1773399 L112.845361,71.1773399 L109.829897,79.8004926 L112.17268,79.8004926 C112.938144,79.8004926 113.634021,79.5788177 114.237113,79.1133005 C114.840206,78.6477833 115.373711,78.0270936 115.860825,77.229064 L116,77.229064 L115.048969,80 L107,80 L107.046392,79.8004926 Z" id="Shape" fill="#424242"></path>
                <path d="M116.046392,79.8004926 L117.507732,79.8004926 L120.523196,71.1773399 L119.061856,71.1773399 L119.131443,71 L123.376289,71 L123.306701,71.1773399 L121.845361,71.1773399 L118.829897,79.8004926 L121.17268,79.8004926 C121.938144,79.8004926 122.634021,79.5788177 123.237113,79.1133005 C123.840206,78.6477833 124.373711,78.0270936 124.860825,77.229064 L125,77.229064 L124.048969,80 L116,80 L116.046392,79.8004926 Z" id="Shape" fill="#424242"></path>
                <path d="M116.046392,79.8004926 L117.507732,79.8004926 L120.523196,71.1773399 L119.061856,71.1773399 L119.131443,71 L123.376289,71 L123.306701,71.1773399 L121.845361,71.1773399 L118.829897,79.8004926 L121.17268,79.8004926 C121.938144,79.8004926 122.634021,79.5788177 123.237113,79.1133005 C123.840206,78.6477833 124.373711,78.0270936 124.860825,77.229064 L125,77.229064 L124.048969,80 L116,80 L116.046392,79.8004926 Z" id="Shape" fill="#424242"></path>
                <path d="M132.23192,79.8297872 L132.0342,79.8297872 C131.990263,79.7659574 131.946325,79.7021277 131.902387,79.6595745 C131.83648,79.6170213 131.748605,79.5744681 131.572854,79.5744681 C131.44104,79.5744681 131.309227,79.5957447 131.133476,79.6382979 C130.979694,79.6808511 130.781974,79.7234043 130.584254,79.787234 C130.386534,79.8510638 130.144876,79.893617 129.903218,79.9361702 C129.661561,79.9787234 129.397934,80 129.112338,80 C128.585085,80 128.10177,79.9148936 127.684361,79.7234043 C127.244983,79.5319149 126.893481,79.2340426 126.585916,78.8085106 C126.32229,78.4042553 126.12457,77.9361702 126.036694,77.4042553 C125.948819,76.8723404 126.014725,76.2340426 126.278352,75.5319149 C126.476072,74.9361702 126.805605,74.3404255 127.201045,73.8085106 C127.618454,73.2553191 128.10177,72.7659574 128.629023,72.3617021 C129.178245,71.9361702 129.749436,71.6170213 130.386534,71.3617021 C131.001663,71.106383 131.63876,71 132.297827,71 C132.561454,71 132.781142,71.0212766 132.956894,71.0638298 C133.132645,71.106383 133.308396,71.1702128 133.440209,71.2340426 C133.572022,71.2978723 133.703836,71.3404255 133.81368,71.4042553 C133.923525,71.4468085 134.055338,71.4680851 134.165182,71.4680851 C134.340933,71.4680851 134.450778,71.4468085 134.538653,71.3829787 C134.626529,71.3404255 134.714404,71.2765957 134.80228,71.212766 L135,71.212766 L134.165182,73.6382979 L134.033369,73.6382979 C134.055338,73.3404255 134.077307,73.0212766 134.055338,72.7234043 C134.033369,72.4255319 133.967462,72.1702128 133.835649,71.9361702 C133.703836,71.7021277 133.506116,71.5106383 133.242489,71.3829787 C132.978862,71.2340426 132.605391,71.1702128 132.122076,71.1702128 C131.682698,71.1702128 131.287258,71.2340426 130.913787,71.3617021 C130.562285,71.4893617 130.232752,71.6808511 129.925187,71.893617 C129.639592,72.106383 129.375965,72.3829787 129.134307,72.6595745 C128.914618,72.9574468 128.69493,73.2553191 128.519178,73.5957447 C128.343427,73.9148936 128.189645,74.2553191 128.035863,74.5957447 C127.90405,74.9361702 127.772236,75.2553191 127.684361,75.5531915 C127.398765,76.4042553 127.223014,77.106383 127.179076,77.6595745 C127.135139,78.212766 127.179076,78.6595745 127.31089,78.9787234 C127.464672,79.2978723 127.684361,79.5319149 127.991925,79.6595745 C128.29949,79.787234 128.672961,79.8510638 129.112338,79.8510638 C129.661561,79.8510638 130.144876,79.7659574 130.540316,79.6170213 C130.935756,79.4680851 131.287258,79.2553191 131.572854,79.0212766 C131.858449,78.7659574 132.122076,78.4893617 132.341765,78.1914894 C132.561454,77.8723404 132.759174,77.5744681 132.956894,77.2765957 L133.088707,77.2765957 L132.23192,79.8297872 Z" id="Shape" fill="#424242"></path>
                <path d="M132.23192,79.8297872 L132.0342,79.8297872 C131.990263,79.7659574 131.946325,79.7021277 131.902387,79.6595745 C131.83648,79.6170213 131.748605,79.5744681 131.572854,79.5744681 C131.44104,79.5744681 131.309227,79.5957447 131.133476,79.6382979 C130.979694,79.6808511 130.781974,79.7234043 130.584254,79.787234 C130.386534,79.8510638 130.144876,79.893617 129.903218,79.9361702 C129.661561,79.9787234 129.397934,80 129.112338,80 C128.585085,80 128.10177,79.9148936 127.684361,79.7234043 C127.244983,79.5319149 126.893481,79.2340426 126.585916,78.8085106 C126.32229,78.4042553 126.12457,77.9361702 126.036694,77.4042553 C125.948819,76.8723404 126.014725,76.2340426 126.278352,75.5319149 C126.476072,74.9361702 126.805605,74.3404255 127.201045,73.8085106 C127.618454,73.2553191 128.10177,72.7659574 128.629023,72.3617021 C129.178245,71.9361702 129.749436,71.6170213 130.386534,71.3617021 C131.001663,71.106383 131.63876,71 132.297827,71 C132.561454,71 132.781142,71.0212766 132.956894,71.0638298 C133.132645,71.106383 133.308396,71.1702128 133.440209,71.2340426 C133.572022,71.2978723 133.703836,71.3404255 133.81368,71.4042553 C133.923525,71.4468085 134.055338,71.4680851 134.165182,71.4680851 C134.340933,71.4680851 134.450778,71.4468085 134.538653,71.3829787 C134.626529,71.3404255 134.714404,71.2765957 134.80228,71.212766 L135,71.212766 L134.165182,73.6382979 L134.033369,73.6382979 C134.055338,73.3404255 134.077307,73.0212766 134.055338,72.7234043 C134.033369,72.4255319 133.967462,72.1702128 133.835649,71.9361702 C133.703836,71.7021277 133.506116,71.5106383 133.242489,71.3829787 C132.978862,71.2340426 132.605391,71.1702128 132.122076,71.1702128 C131.682698,71.1702128 131.287258,71.2340426 130.913787,71.3617021 C130.562285,71.4893617 130.232752,71.6808511 129.925187,71.893617 C129.639592,72.106383 129.375965,72.3829787 129.134307,72.6595745 C128.914618,72.9574468 128.69493,73.2553191 128.519178,73.5957447 C128.343427,73.9148936 128.189645,74.2553191 128.035863,74.5957447 C127.90405,74.9361702 127.772236,75.2553191 127.684361,75.5531915 C127.398765,76.4042553 127.223014,77.106383 127.179076,77.6595745 C127.135139,78.212766 127.179076,78.6595745 127.31089,78.9787234 C127.464672,79.2978723 127.684361,79.5319149 127.991925,79.6595745 C128.29949,79.787234 128.672961,79.8510638 129.112338,79.8510638 C129.661561,79.8510638 130.144876,79.7659574 130.540316,79.6170213 C130.935756,79.4680851 131.287258,79.2553191 131.572854,79.0212766 C131.858449,78.7659574 132.122076,78.4893617 132.341765,78.1914894 C132.561454,77.8723404 132.759174,77.5744681 132.956894,77.2765957 L133.088707,77.2765957 L132.23192,79.8297872 Z" id="Shape" fill="#424242"></path>
                <path d="M199.094294,25 C201.612005,22.018666 202.838021,18.5368161 202.312586,14.5762119 C201.940402,11.7689704 200.73628,9.28815234 198.765897,7.32961177 C194.431054,2.95553783 187.797432,2.69439909 182.893368,6.72028804 C180.266191,8.87468266 179.040175,11.8777782 178.624205,15.2943434 C178.208235,18.7761933 179.587503,21.6922426 181.667352,24.7170997 C177.704693,22.3233279 176.018921,15.0767278 177.573334,10.0062839 C179.609396,3.34724595 184.819965,-0.286934884 192.000916,0.0177269823 C197.211484,0.235342601 202.443945,5.17521714 203.691854,11.0508388 C204.830297,16.4041831 202.706663,23.063221 199.094294,25 Z" id="Shape" fill="#83C13A"></path>
                <path d="M197,28.9778206 C194.604322,27.3587271 192.36392,25.8505304 189.879514,24.1648987 C187.661294,25.7174542 185.376527,27.3365477 183.003031,29 C182.847756,27.1812922 188.703857,7.99614272 189.923878,6 C191.010806,7.66345227 196.711631,25.9836066 197,28.9778206 Z M189.391505,15.5814851 C189.280594,15.5814851 189.191865,15.6036644 189.080954,15.6036644 C188.348942,17.9990357 187.594747,20.3944069 186.707459,23.2999036 C187.883116,22.3905497 188.659493,21.7917068 189.391505,21.2372228 C189.391505,19.24108 189.391505,17.4223722 189.391505,15.5814851 Z" id="Shape" fill="#008BD8"></path>
                <g id="Group" transform="translate(205.000000, 33.000000)" fill="#008BD8">
                    <polygon id="Shape" points="0.977777778 0.6 0.2 0.6 0.2 0.0642857143 2.4 0.0642857143 2.4 0.6 1.62222222 0.6 1.62222222 2.91428571 0.977777778 2.91428571"></polygon>
                    <path d="M5.15555556,1.82142857 C5.13333333,1.47857143 5.13333333,1.07142857 5.13333333,0.642857143 L5.11111111,0.642857143 C5.02222222,1.00714286 4.91111111,1.41428571 4.8,1.75714286 L4.44444444,2.87142857 L3.93333333,2.87142857 L3.62222222,1.75714286 C3.53333333,1.41428571 3.42222222,1.00714286 3.35555556,0.642857143 C3.33333333,1.02857143 3.33333333,1.47857143 3.31111111,1.82142857 L3.26666667,2.91428571 L2.66666667,2.91428571 L2.84444444,0.0428571429 L3.71111111,0.0428571429 L4,1.00714286 C4.08888889,1.32857143 4.17777778,1.69285714 4.24444444,2.03571429 L4.26666667,2.03571429 C4.35555556,1.71428571 4.44444444,1.32857143 4.53333333,1.00714286 L4.84444444,0.0642857143 L5.68888889,0.0642857143 L5.84444444,2.93571429 L5.22222222,2.93571429 L5.15555556,1.82142857 Z" id="Shape"></path>
                </g>
                <g id="Group" transform="translate(0.000000, 22.000000)" fill="#008BD8">
                    <path d="M21.2436709,0.685427136 C24.8322785,0.685427136 29.5727848,1.70251256 32.0981013,6.19095477 C34.8006329,11.1437186 34.3797468,17.4894472 33.6708861,21.4693467 C32.6518987,27.3728643 30.0379747,33.6522613 26.6487342,37.3668342 C22.0411392,42.4301508 16.4588608,43.159799 13.6677215,43.159799 C9.23734177,43.159799 5.13924051,41.479397 2.72468354,37.5879397 C-0.110759494,32.878392 0.620253165,26.1346734 1.28481013,22.4201005 C3.14556962,11.6522613 9.14873418,0.685427136 21.2436709,0.685427136 Z M9.37025316,33.4974874 C10.0791139,35.1778894 11.5189873,36.7477387 14.8639241,36.7477387 C17.7879747,36.7477387 20.0253165,35.5095477 21.8417722,32.9889447 C23.2816456,30.9768844 25.0094937,27.8150754 26.1613924,21.358794 C26.4936709,19.3909548 26.8702532,16.5829146 26.5822785,14.1065327 C26.0727848,9.10954774 23.5917722,6.92060302 20.1582278,6.92060302 C17.4556962,6.92060302 15.085443,8.26934673 13.3575949,10.3477387 C10.9873418,13.1557789 9.63607595,17.5336683 8.83860759,22.1547739 C8.17405063,26.0241206 7.93037975,30.3577889 9.37025316,33.4974874 Z" id="Shape"></path>
                    <path d="M13.6677215,43.8231156 C8.61708861,43.8231156 4.51898734,41.7447236 2.17088608,37.9417085 C-0.0221518987,34.2934673 -0.553797468,29.0311558 0.642405063,22.3095477 C1.37341772,18.0422111 3.05696203,11.9396985 6.9335443,7.09748744 C10.6550633,2.41005025 15.4841772,0.0221105528 21.2879747,0.0221105528 C24.3449367,0.0221105528 29.8829114,0.773869347 32.7183544,5.85929648 C35.6202532,11.1879397 35,17.9979899 34.3797468,21.5798995 C33.2721519,27.9698492 30.5253165,34.1829146 27.1803797,37.8090452 C22.3734177,43.0492462 16.6582278,43.8231156 13.6677215,43.8231156 Z M21.2436709,1.34874372 C6.71202532,1.34874372 2.79113924,17.5778894 1.92721519,22.5306533 C0.819620253,28.8321608 1.28481013,33.9175879 3.27848101,37.2562814 C5.38291139,40.639196 9.08227848,42.4964824 13.6455696,42.4964824 C16.414557,42.4964824 21.7310127,41.7668342 26.1392405,36.9246231 C29.306962,33.4753769 31.943038,27.5055276 33.0063291,21.358794 C33.6044304,17.9316583 34.2025316,11.4753769 31.5,6.50050251 C29.1297468,2.25527638 24.6107595,1.34874372 21.2436709,1.34874372 Z M14.8639241,37.4110553 C11.8291139,37.4110553 9.76898734,36.1728643 8.75,33.7628141 C7.48734177,30.9768844 7.28797468,27.041206 8.19620253,22.0221106 C9.14873418,16.4502513 10.6772152,12.4924623 12.8481013,9.90552764 C14.7974684,7.53969849 17.4113924,6.23517588 20.1582278,6.23517588 C22.5063291,6.23517588 26.5601266,7.25226131 27.2468354,14.0180905 C27.5348101,16.6050251 27.1360759,19.5015075 26.8259494,21.4472362 C25.6075949,28.1909548 23.8132911,31.3527638 22.3734177,33.3648241 C20.4462025,36.1065327 17.9873418,37.4110553 14.8639241,37.4110553 Z M20.1803797,7.5839196 C17.8322785,7.5839196 15.5949367,8.71155779 13.8892405,10.7678392 C11.8955696,13.1336683 10.4113924,17.0030151 9.52531646,22.2653266 C8.66139241,27.0190955 8.8164557,30.6894472 9.99050633,33.2321608 L9.99050633,33.2542714 C10.7879747,35.2 12.3386076,36.1065327 14.8639241,36.1065327 C17.5443038,36.1065327 19.6044304,35.001005 21.3101266,32.6130653 C22.6613924,30.7115578 24.3670886,27.7266332 25.5189873,21.2482412 C25.8291139,19.3909548 26.2056962,16.6271357 25.9398734,14.1949749 C25.6297468,11.1658291 24.3892405,7.5839196 20.1803797,7.5839196 Z" id="Shape"></path>
                </g>
                <g id="Group" transform="translate(35.000000, 34.000000)" fill="#008BD8">
                    <path d="M5.44444444,6.7352518 C5.48888889,6.62374101 6.06666667,3.50143885 6.31111111,1.51654676 L13.6,1.51654676 L12.9777778,5.82086331 C13.9111111,4.52733813 16.6666667,0.825179856 22.3111111,0.825179856 C27.4,0.825179856 28.9333333,4.21510791 29.2,6.2 C29.4666667,7.9618705 29.3111111,9.43381295 28.2666667,14.7640288 L25.2888889,30.2417266 L17.5555556,30.2417266 L21,12.4446043 C21.2,11.2625899 21.4,10.2366906 21.1555556,9.32230216 C20.8444444,8.07338129 19.9333333,6.89136691 17.9777778,6.89136691 C16.3333333,6.89136691 14.6444444,7.73884892 13.5555556,9.09928058 C13,9.8352518 12.2222222,11.2625899 11.8,13.4705036 L8.55555556,30.2417266 L0.911111111,30.2417266 L5.44444444,6.7352518 Z" id="Shape"></path>
                    <path d="M25.8666667,30.9107914 L16.7555556,30.9107914 L20.3777778,12.1100719 C20.5555556,11.0841727 20.7111111,10.2143885 20.5111111,9.52302158 L20.5111111,9.50071942 C20.2888889,8.63093525 19.6666667,7.58273381 17.9777778,7.58273381 C16.5333333,7.58273381 15.0444444,8.34100719 14.0888889,9.54532374 C13.7555556,9.99136691 12.9111111,11.2625899 12.4666667,13.6043165 L9.13333333,30.9330935 L0.133333333,30.9330935 L4.82222222,6.51223022 C4.91111111,6.11079137 5.42222222,3.34532374 5.66666667,1.44964029 L5.73333333,0.869784173 L14.3777778,0.869784173 L13.9777778,3.61294964 C16.2444444,1.3381295 19.0444444,0.178417266 22.3333333,0.178417266 C27.3333333,0.178417266 29.5111111,3.38992806 29.8666667,6.15539568 C30.1333333,8.00647482 29.9777778,9.5676259 28.9333333,14.9201439 L25.8666667,30.9107914 Z M18.3777778,29.5726619 L24.7777778,29.5726619 L27.6444444,14.652518 C28.6444444,9.45611511 28.8,7.98417266 28.5555556,6.31151079 C28.4444444,5.50863309 27.6666667,1.4942446 22.3333333,1.4942446 C18.7111111,1.4942446 15.7555556,3.07769784 13.5333333,6.2 L11.9333333,8.45251799 L12.8222222,2.18561151 L6.88888889,2.18561151 C6.66666667,3.67985612 6.24444444,6.17769784 6.08888889,6.84676259 L1.73333333,29.5726619 L8.02222222,29.5726619 L11.1555556,13.3366906 C11.6222222,10.8165468 12.5333333,9.34460432 13.0222222,8.69784173 C14.2222222,7.18129496 16.1333333,6.22230216 17.9555556,6.22230216 C19.8888889,6.22230216 21.3333333,7.31510791 21.7777778,9.16618705 C22.0444444,10.1697842 21.8666667,11.2179856 21.6666667,12.3553957 L21.6222222,12.5784173 L18.3777778,29.5726619 Z" id="Shape"></path>
                </g>
                <g id="Group" transform="translate(67.000000, 34.000000)" fill="#008BD8">
                    <path d="M8.12195122,18 C7.77073171,19.8666667 6.65121951,25.6222222 11.8756098,25.6222222 C13.7414634,25.6222222 15.7829268,24.8222222 17.1,21.6666667 L23.9268293,21.6666667 C23.5756098,23.0222222 22.8512195,25.4444444 20.3268293,27.8888889 C18,30.0888889 14.4439024,31.2222222 10.6902439,31.2222222 C8.51707317,31.2222222 4.45609756,30.7777778 2.32682927,27.6666667 C0.548780488,24.9555556 0.307317073,21.1111111 1.16341463,16.5333333 C2.08536585,11.9111111 4.10487805,6.37777778 9.06585366,3.04444444 C11.3487805,1.57777778 13.9390244,0.666666667 16.7268293,0.666666667 C20.3707317,0.666666667 24.4317073,2.24444444 25.7487805,7.55555556 C26.7146341,11.4444444 25.8585366,15.6222222 25.2878049,18 L8.12195122,18 Z M18.6146341,12.7555556 C18.8780488,11.4666667 19.7341463,6.37777778 15.3658537,6.37777778 C12.0731707,6.37777778 10.1414634,9.42222222 9.32926829,12.7555556 L18.6146341,12.7555556 Z" id="Shape"></path>
                    <path d="M10.6902439,31.8888889 C8.34146341,31.8888889 4.08292683,31.4 1.77804878,28.0444444 C-2.76688394e-14,25.3111111 -0.43902439,21.4 0.504878049,16.4222222 C1.77804878,9.97777778 4.52195122,5.28888889 8.69268293,2.48888889 C11.2609756,0.844444444 13.9609756,0 16.704878,0 C21.6878049,0 25.2,2.68888889 26.3634146,7.4 C27.3073171,11.2666667 26.5609756,15.4 25.902439,18.1555556 L25.7926829,18.6666667 L8.62682927,18.6666667 C8.38536585,20.0666667 8.07804878,22.5777778 9.17560976,23.9333333 C9.74634146,24.6222222 10.602439,24.9555556 11.8317073,24.9555556 C13.9390244,24.9555556 15.4536585,23.8 16.4414634,21.4 L16.6170732,21 L24.7609756,21 L24.5414634,21.8444444 C24.2341463,23 23.5317073,25.7111111 20.7658537,28.3777778 C18.4170732,30.6 14.7512195,31.8888889 10.6902439,31.8888889 Z M16.7268293,1.33333333 C14.2243902,1.33333333 11.7658537,2.08888889 9.41707317,3.6 C5.57560976,6.17777778 3.00731707,10.5777778 1.8,16.6666667 C0.92195122,21.2888889 1.29512195,24.8666667 2.87560976,27.2888889 C4.82926829,30.1333333 8.60487805,30.5555556 10.6902439,30.5555556 C14.4,30.5555556 17.7585366,29.4 19.8658537,27.4 C21.8634146,25.4888889 22.6536585,23.6 23.0487805,22.3333333 L17.495122,22.3333333 C16.2878049,24.9555556 14.3780488,26.2888889 11.8536585,26.2888889 C10.2292683,26.2888889 9,25.7777778 8.18780488,24.7777778 C6.5195122,22.7333333 7.17804878,19.3333333 7.44146341,17.8888889 L7.55121951,17.3555556 L8.1,17.3333333 L24.7609756,17.3333333 C25.2,15.3777778 25.9902439,11.3555556 25.0902439,7.71111111 C23.7512195,2.15555556 19.2731707,1.33333333 16.7268293,1.33333333 Z M19.1414634,13.4222222 L8.47317073,13.4222222 L8.67073171,12.6 C9.74634146,8.22222222 12.1609756,5.71111111 15.3439024,5.71111111 C16.704878,5.71111111 17.7804878,6.15555556 18.4829268,7.04444444 C19.4707317,8.26666667 19.7341463,10.2888889 19.2292683,12.8888889 L19.1414634,13.4222222 Z M10.2073171,12.0888889 L18.0658537,12.0888889 C18.3512195,10.1777778 18.1536585,8.71111111 17.495122,7.88888889 C17.0341463,7.31111111 16.3317073,7.04444444 15.3658537,7.04444444 C12.2707317,7.04444444 10.8219512,10.1111111 10.2073171,12.0888889 Z" id="Shape"></path>
                </g>
                <g id="Group" transform="translate(93.000000, 22.000000)" fill="#83C13A">
                    <polygon id="Shape" points="8.86008584 0.857591623 21.8935622 0.857591623 24.0137339 30.2575916 38.2969957 0.857591623 50.9733906 0.857591623 43.0283262 41.252356 35.0832618 41.252356 41.8901288 6.61884817 24.9287554 41.252356 18.3227468 41.252356 15.1759657 6.61884817 8.36909871 41.252356 0.892703863 41.252356"></polygon>
                    <path d="M43.5862661,41.9120419 L34.2798283,41.9120419 L40.2609442,11.478534 L25.3527897,41.9120419 L17.7201717,41.9120419 L14.9527897,11.3246073 L8.94935622,41.9120419 L0.111587983,41.9120419 L8.30214592,0.197905759 L22.5184549,0.197905759 L24.504721,27.7068063 L37.8729614,0.197905759 L51.7991416,0.197905759 L43.5862661,41.9120419 Z M35.9090129,40.5926702 L42.4927039,40.5926702 L50.1699571,1.51727749 L38.72103,1.51727749 L23.5227468,32.7863874 L21.2686695,1.51727749 L9.39570815,1.51727749 L1.71845494,40.5926702 L7.83347639,40.5926702 L15.4437768,1.89109948 L18.9476395,40.5926702 L24.504721,40.5926702 L43.5416309,1.7591623 L35.9090129,40.5926702 Z" id="Shape"></path>
                </g>
                <g id="Group" transform="translate(142.000000, 34.000000)" fill="#83C13A">
                    <path d="M17.289313,29.6028169 C17.4,27.878169 17.621374,26.6119718 17.8427481,25.7823944 C13.7473282,30.2795775 10.0503817,30.2795775 8.50076336,30.2795775 C4.47175573,30.2795775 2.9221374,29.1225352 2.03664122,28.0528169 C0.708396947,26.393662 0.442748092,24.1232394 0.929770992,21.8964789 C1.37251908,19.6697183 3.03282443,15.565493 8.65572519,13.1859155 C12.419084,11.6359155 17.3335878,11.6359155 20.0343511,11.6359155 C20.410687,9.80211268 20.521374,8.90704225 20.410687,7.92464789 C20.1450382,5.87253521 18.0419847,5.58873239 17.2671756,5.58873239 C16.1160305,5.58873239 14.7877863,6.09084507 13.8358779,7.13873239 C13.0167939,8.07746479 12.8396947,8.97253521 12.7290076,9.62746479 L4.71526718,9.62746479 C5.04732824,8.12112676 5.86641221,5.13028169 9.25343511,3.03450704 C12.1755725,1.20070423 15.540458,0.764084507 18.1969466,0.764084507 C20.521374,0.764084507 25.2587786,1.15704225 27.3618321,4.36619718 C28.7343511,6.63661972 28.070229,9.97676056 27.8045802,11.2429577 L25.4801527,22.5077465 C24.9931298,24.8873239 24.6610687,27.2887324 24.6610687,29.6028169 L17.289313,29.6028169 Z M9.07633588,20.9577465 C8.7,22.8352113 9.51908397,24.9528169 12.2198473,24.9528169 C13.7030534,24.9528169 15.0977099,24.2323944 16.0274809,23.3373239 C17.8427481,21.5690141 18.3961832,19.4077465 19.0603053,16.3950704 C13.8801527,15.9584507 9.78473282,17.6394366 9.07633588,20.9577465 Z" id="Shape"></path>
                    <path d="M8.52290076,30.934507 C4.16183206,30.934507 2.50152672,29.6246479 1.54961832,28.4676056 C0.154961832,26.7211268 -0.265648855,24.3415493 0.309923664,21.743662 C0.686259542,19.8661972 2.23587786,15.1943662 8.43435115,12.5746479 C12.0648855,11.0683099 16.7358779,10.9809859 19.5251908,10.9591549 C19.8129771,9.47464789 19.8793893,8.75422535 19.7908397,7.96830986 C19.5694656,6.30915493 17.6877863,6.22183099 17.3114504,6.22183099 C16.2267176,6.22183099 15.1198473,6.72394366 14.389313,7.55352113 C13.6587786,8.38309859 13.5259542,9.1471831 13.4374046,9.71478873 L13.348855,10.2605634 L3.96259542,10.2605634 L4.13969466,9.47464789 C4.38320611,8.31760563 5.15801527,4.82464789 8.96564885,2.46690141 C11.489313,0.895070423 14.610687,0.0873239437 18.2633588,0.0873239437 C20.9419847,0.0873239437 25.7679389,0.58943662 27.9816794,3.99507042 C29.5534351,6.57112676 28.778626,10.1732394 28.5129771,11.3739437 L26.1885496,22.6387324 C25.6351145,25.2802817 25.3694656,27.5507042 25.3694656,29.6028169 L25.3694656,30.2577465 L16.6030534,30.2577465 L16.6473282,29.5591549 C16.6916031,28.8605634 16.7580153,28.2492958 16.8244275,27.7253521 C13.1496183,30.934507 9.98396947,30.934507 8.52290076,30.934507 Z M20.0564885,12.2908451 C17.4442748,12.2908451 12.5740458,12.2908451 8.94351145,13.7971831 C3.32061069,16.1767606 1.9480916,20.3464789 1.61603053,22.0274648 C1.12900763,24.2542254 1.4610687,26.2408451 2.59007634,27.6598592 C3.34274809,28.5767606 4.73740458,29.6246479 8.52290076,29.6246479 C10.0061069,29.6246479 13.4816794,29.6246479 17.3557252,25.3457746 L19.1931298,23.3373239 L18.5068702,25.9570423 C18.3740458,26.4373239 18.1526718,27.4197183 18.0198473,28.9697183 L24.0412214,28.9697183 C24.0854962,27.0049296 24.3732824,24.843662 24.8824427,22.3985915 L27.2068702,11.1338028 C27.8267176,8.29577465 27.6938931,6.13450704 26.8526718,4.71549296 C24.9931298,1.8556338 20.6541985,1.41901408 18.2633588,1.41901408 C14.8763359,1.41901408 11.9763359,2.13943662 9.6740458,3.60211268 C7.10610687,5.19577465 6.10992366,7.31338028 5.64503817,8.9943662 L12.2419847,8.9943662 C12.3748092,8.36126761 12.6625954,7.55352113 13.3931298,6.72394366 C14.389313,5.61056338 15.8503817,4.93380282 17.3114504,4.93380282 C18.8832061,4.93380282 20.8312977,5.69788732 21.119084,7.83732394 C21.2519084,8.9943662 21.0969466,10.0204225 20.7206107,11.7669014 L20.6099237,12.2908451 L20.0564885,12.2908451 Z M12.2198473,25.6077465 C10.559542,25.6077465 9.62977099,24.9091549 9.1648855,24.3197183 C8.43435115,23.4246479 8.14656489,22.1584507 8.43435115,20.8267606 C9.12061069,17.6612676 12.5740458,15.6746479 17.4664122,15.6746479 C18.0198473,15.6746479 18.5732824,15.6964789 19.148855,15.7401408 L19.9015267,15.8056338 L19.7465649,16.5260563 C19.0381679,19.6915493 18.440458,21.9183099 16.5366412,23.7957746 C15.2748092,24.9528169 13.7251908,25.6077465 12.2198473,25.6077465 Z M17.4442748,16.984507 C13.2160305,16.984507 10.2717557,18.556338 9.71832061,21.0887324 C9.51908397,22.0056338 9.69618321,22.9225352 10.1832061,23.4901408 C10.6259542,24.0140845 11.3122137,24.2978873 12.2198473,24.2978873 C13.3709924,24.2978873 14.6328244,23.7739437 15.5625954,22.8788732 C17.0679389,21.4161972 17.6435115,19.6478873 18.2412214,17.028169 C17.9755725,17.006338 17.7099237,16.984507 17.4442748,16.984507 Z" id="Shape"></path>
                </g>
                <g id="Group" transform="translate(170.000000, 34.000000)" fill="#83C13A">
                    <path d="M16.189404,1.38128342 L15.6264901,5.39358289 C18.9139073,0.877005348 23.2821192,0.83315508 24.5205298,0.83315508 C31.3430464,0.83315508 34.405298,6.29251337 32.6940397,14.8652406 C31.1403974,22.8240642 25.8715232,29.9058824 18.2834437,29.9058824 C13.5549669,29.9058824 12.1364238,27.231016 11.618543,26.2882353 L8.87152318,40.3203209 L1.01324503,40.3203209 L8.71390728,1.38128342 L16.189404,1.38128342 Z M24.813245,15.1941176 C25.4437086,11.8614973 25.8039735,6.1171123 21.2781457,6.1171123 C18.7788079,6.1171123 14.8834437,8.11229947 13.3748344,15.6983957 C13.0145695,17.3647059 11.6635762,24.4903743 17.3377483,24.4903743 C20.9629139,24.5122995 23.6649007,20.7631016 24.813245,15.1941176 Z" id="Shape"></path>
                    <path d="M9.41192053,40.9780749 L0.18013245,40.9780749 L8.12847682,0.723529412 L16.9549669,0.723529412 L16.594702,3.24491979 C18.3284768,1.60053476 20.8728477,0.153475936 24.4980132,0.153475936 C27.4701987,0.153475936 29.9019868,1.16203209 31.5231788,3.06951872 C33.7523179,5.70053476 34.3602649,9.80053476 33.3245033,14.9748663 C31.815894,22.7363636 26.5470199,30.5417112 18.2609272,30.5417112 C14.815894,30.5417112 12.9470199,29.1823529 11.9562914,27.9983957 L9.41192053,40.9780749 Z M1.82384106,39.6625668 L8.30860927,39.6625668 L11.3258278,24.3368984 L12.2490066,26.0251337 C12.789404,26.9898396 14.0278146,29.2700535 18.2834437,29.2700535 C25.8039735,29.2700535 30.6225166,21.9909091 32.018543,14.755615 C32.9642384,10.0636364 32.4238411,6.20481283 30.4874172,3.94652406 C29.1139073,2.32406417 27.1099338,1.51283422 24.5205298,1.51283422 C21.0529801,1.51283422 18.2384106,2.95989305 16.1668874,5.81016043 L14.5682119,8.02459893 L15.4238411,2.0828877 L9.27682119,2.0828877 L1.82384106,39.6625668 Z M17.3377483,25.1700535 C15.7165563,25.1700535 14.4556291,24.6438503 13.5774834,23.613369 C11.7761589,21.4427807 12.2715232,17.6497326 12.7218543,15.5887701 C14.207947,8.1342246 18.1258278,5.48128342 21.2781457,5.48128342 C22.6516556,5.48128342 23.7324503,5.94171123 24.5205298,6.86256684 C26.2543046,8.87967914 25.984106,12.5850267 25.4887417,15.3475936 C24.2278146,21.486631 21.1655629,25.1700535 17.3377483,25.1700535 Z M21.2781457,6.77486631 C18.6437086,6.77486631 15.3562914,9.14278075 14.0278146,15.8299465 C13.7125828,17.3208556 13.1046358,20.9604278 14.613245,22.7802139 C15.2211921,23.5037433 16.0993377,23.8545455 17.3152318,23.8545455 C20.4675497,23.8545455 23.0119205,20.5657754 24.1377483,15.084492 C24.7907285,11.642246 24.5430464,8.94545455 23.4622517,7.69572193 C22.9668874,7.08181818 22.2463576,6.77486631 21.2781457,6.77486631 Z" id="Shape"></path>
                </g>
            </g>
        </g>
    </g>
</svg>