<?xml version="1.0" encoding="utf-8"?>
<!-- Generator: Adobe Illustrator 22.1.0, SVG Export Plug-In . SVG Version: 6.00 Build 0)  -->
<svg version="1.1" id="Layer_1" xmlns="http://www.w3.org/2000/svg" xmlns:xlink="http://www.w3.org/1999/xlink" x="0px" y="0px"
	 viewBox="0 0 57 57" style="enable-background:new 0 0 57 57;" xml:space="preserve">
<style type="text/css">
	.st0{fill:#EA6B25;}
	.st1{fill:none;stroke:#FFFFFF;stroke-width:2;stroke-linejoin:round;stroke-miterlimit:10;}
</style>
<g>
	<rect x="2.1" y="0.9" class="st0" width="53.5" height="46.1"/>
	<polygon class="st0" points="19.7,46.9 10.6,56.1 1.4,46.9 	"/>
	<g>
		<path class="st1" d="M33.3,19l-8,6.1c-1.2,0.9-1.5,2.7-0.6,3.9l0,0c0.9,1.2,2.6,1.5,3.8,0.6l10.7-8.1c2.4-1.7,3-5.1,1.2-7.6l0,0
			c-1.7-2.4-5.1-3-7.5-1.2l-12.6,9.1c-3.5,2.5-4.3,7.4-1.8,10.9l0,0c2.5,3.5,7.4,4.3,10.9,1.8l5.3-3.8"/>
	</g>
</g>
</svg>
